%TF.GenerationSoftware,KiCad,Pcbnew,8.0.5*%
%TF.CreationDate,2024-10-16T08:17:44-04:00*%
%TF.ProjectId,NHD Display Connector 241015,4e484420-4469-4737-906c-617920436f6e,rev?*%
%TF.SameCoordinates,Original*%
%TF.FileFunction,Legend,Top*%
%TF.FilePolarity,Positive*%
%FSLAX46Y46*%
G04 Gerber Fmt 4.6, Leading zero omitted, Abs format (unit mm)*
G04 Created by KiCad (PCBNEW 8.0.5) date 2024-10-16 08:17:44*
%MOMM*%
%LPD*%
G01*
G04 APERTURE LIST*
%ADD10C,0.100000*%
%ADD11C,0.000000*%
%ADD12C,0.120000*%
G04 APERTURE END LIST*
D10*
X158750000Y-94742000D02*
X158750000Y-94996000D01*
X148590000Y-94742000D02*
X158750000Y-94742000D01*
X158750000Y-94996000D02*
X158750000Y-95250000D01*
X148590000Y-95250000D02*
X148590000Y-94742000D01*
X140140741Y-98184850D02*
X140231455Y-98215088D01*
X140231455Y-98215088D02*
X140382646Y-98215088D01*
X140382646Y-98215088D02*
X140443122Y-98184850D01*
X140443122Y-98184850D02*
X140473360Y-98154611D01*
X140473360Y-98154611D02*
X140503598Y-98094135D01*
X140503598Y-98094135D02*
X140503598Y-98033659D01*
X140503598Y-98033659D02*
X140473360Y-97973183D01*
X140473360Y-97973183D02*
X140443122Y-97942945D01*
X140443122Y-97942945D02*
X140382646Y-97912707D01*
X140382646Y-97912707D02*
X140261693Y-97882469D01*
X140261693Y-97882469D02*
X140201217Y-97852230D01*
X140201217Y-97852230D02*
X140170979Y-97821992D01*
X140170979Y-97821992D02*
X140140741Y-97761516D01*
X140140741Y-97761516D02*
X140140741Y-97701040D01*
X140140741Y-97701040D02*
X140170979Y-97640564D01*
X140170979Y-97640564D02*
X140201217Y-97610326D01*
X140201217Y-97610326D02*
X140261693Y-97580088D01*
X140261693Y-97580088D02*
X140412884Y-97580088D01*
X140412884Y-97580088D02*
X140503598Y-97610326D01*
X140775741Y-98215088D02*
X140775741Y-97580088D01*
X140775741Y-97580088D02*
X140926931Y-97580088D01*
X140926931Y-97580088D02*
X141017646Y-97610326D01*
X141017646Y-97610326D02*
X141078122Y-97670802D01*
X141078122Y-97670802D02*
X141108360Y-97731278D01*
X141108360Y-97731278D02*
X141138598Y-97852230D01*
X141138598Y-97852230D02*
X141138598Y-97942945D01*
X141138598Y-97942945D02*
X141108360Y-98063897D01*
X141108360Y-98063897D02*
X141078122Y-98124373D01*
X141078122Y-98124373D02*
X141017646Y-98184850D01*
X141017646Y-98184850D02*
X140926931Y-98215088D01*
X140926931Y-98215088D02*
X140775741Y-98215088D01*
X141380503Y-98033659D02*
X141682884Y-98033659D01*
X141320027Y-98215088D02*
X141531693Y-97580088D01*
X141531693Y-97580088D02*
X141743360Y-98215088D01*
X142680741Y-98184850D02*
X142771455Y-98215088D01*
X142771455Y-98215088D02*
X142922646Y-98215088D01*
X142922646Y-98215088D02*
X142983122Y-98184850D01*
X142983122Y-98184850D02*
X143013360Y-98154611D01*
X143013360Y-98154611D02*
X143043598Y-98094135D01*
X143043598Y-98094135D02*
X143043598Y-98033659D01*
X143043598Y-98033659D02*
X143013360Y-97973183D01*
X143013360Y-97973183D02*
X142983122Y-97942945D01*
X142983122Y-97942945D02*
X142922646Y-97912707D01*
X142922646Y-97912707D02*
X142801693Y-97882469D01*
X142801693Y-97882469D02*
X142741217Y-97852230D01*
X142741217Y-97852230D02*
X142710979Y-97821992D01*
X142710979Y-97821992D02*
X142680741Y-97761516D01*
X142680741Y-97761516D02*
X142680741Y-97701040D01*
X142680741Y-97701040D02*
X142710979Y-97640564D01*
X142710979Y-97640564D02*
X142741217Y-97610326D01*
X142741217Y-97610326D02*
X142801693Y-97580088D01*
X142801693Y-97580088D02*
X142952884Y-97580088D01*
X142952884Y-97580088D02*
X143043598Y-97610326D01*
X143678598Y-98154611D02*
X143648360Y-98184850D01*
X143648360Y-98184850D02*
X143557646Y-98215088D01*
X143557646Y-98215088D02*
X143497170Y-98215088D01*
X143497170Y-98215088D02*
X143406455Y-98184850D01*
X143406455Y-98184850D02*
X143345979Y-98124373D01*
X143345979Y-98124373D02*
X143315741Y-98063897D01*
X143315741Y-98063897D02*
X143285503Y-97942945D01*
X143285503Y-97942945D02*
X143285503Y-97852230D01*
X143285503Y-97852230D02*
X143315741Y-97731278D01*
X143315741Y-97731278D02*
X143345979Y-97670802D01*
X143345979Y-97670802D02*
X143406455Y-97610326D01*
X143406455Y-97610326D02*
X143497170Y-97580088D01*
X143497170Y-97580088D02*
X143557646Y-97580088D01*
X143557646Y-97580088D02*
X143648360Y-97610326D01*
X143648360Y-97610326D02*
X143678598Y-97640564D01*
X144253122Y-98215088D02*
X143950741Y-98215088D01*
X143950741Y-98215088D02*
X143950741Y-97580088D01*
X144742979Y-97791754D02*
X144742979Y-98215088D01*
X144742979Y-97852230D02*
X144773217Y-97821992D01*
X144773217Y-97821992D02*
X144833693Y-97791754D01*
X144833693Y-97791754D02*
X144924408Y-97791754D01*
X144924408Y-97791754D02*
X144984884Y-97821992D01*
X144984884Y-97821992D02*
X145015122Y-97882469D01*
X145015122Y-97882469D02*
X145015122Y-98215088D01*
X145680360Y-98215088D02*
X145468693Y-97912707D01*
X145317503Y-98215088D02*
X145317503Y-97580088D01*
X145317503Y-97580088D02*
X145559408Y-97580088D01*
X145559408Y-97580088D02*
X145619884Y-97610326D01*
X145619884Y-97610326D02*
X145650122Y-97640564D01*
X145650122Y-97640564D02*
X145680360Y-97701040D01*
X145680360Y-97701040D02*
X145680360Y-97791754D01*
X145680360Y-97791754D02*
X145650122Y-97852230D01*
X145650122Y-97852230D02*
X145619884Y-97882469D01*
X145619884Y-97882469D02*
X145559408Y-97912707D01*
X145559408Y-97912707D02*
X145317503Y-97912707D01*
X145952503Y-97882469D02*
X146164170Y-97882469D01*
X146254884Y-98215088D02*
X145952503Y-98215088D01*
X145952503Y-98215088D02*
X145952503Y-97580088D01*
X145952503Y-97580088D02*
X146254884Y-97580088D01*
X146496789Y-98184850D02*
X146587503Y-98215088D01*
X146587503Y-98215088D02*
X146738694Y-98215088D01*
X146738694Y-98215088D02*
X146799170Y-98184850D01*
X146799170Y-98184850D02*
X146829408Y-98154611D01*
X146829408Y-98154611D02*
X146859646Y-98094135D01*
X146859646Y-98094135D02*
X146859646Y-98033659D01*
X146859646Y-98033659D02*
X146829408Y-97973183D01*
X146829408Y-97973183D02*
X146799170Y-97942945D01*
X146799170Y-97942945D02*
X146738694Y-97912707D01*
X146738694Y-97912707D02*
X146617741Y-97882469D01*
X146617741Y-97882469D02*
X146557265Y-97852230D01*
X146557265Y-97852230D02*
X146527027Y-97821992D01*
X146527027Y-97821992D02*
X146496789Y-97761516D01*
X146496789Y-97761516D02*
X146496789Y-97701040D01*
X146496789Y-97701040D02*
X146527027Y-97640564D01*
X146527027Y-97640564D02*
X146557265Y-97610326D01*
X146557265Y-97610326D02*
X146617741Y-97580088D01*
X146617741Y-97580088D02*
X146768932Y-97580088D01*
X146768932Y-97580088D02*
X146859646Y-97610326D01*
X147131789Y-97882469D02*
X147343456Y-97882469D01*
X147434170Y-98215088D02*
X147131789Y-98215088D01*
X147131789Y-98215088D02*
X147131789Y-97580088D01*
X147131789Y-97580088D02*
X147434170Y-97580088D01*
X147615599Y-97580088D02*
X147978456Y-97580088D01*
X147797027Y-98215088D02*
X147797027Y-97580088D01*
X153203598Y-97610326D02*
X153143122Y-97580088D01*
X153143122Y-97580088D02*
X153052408Y-97580088D01*
X153052408Y-97580088D02*
X152961693Y-97610326D01*
X152961693Y-97610326D02*
X152901217Y-97670802D01*
X152901217Y-97670802D02*
X152870979Y-97731278D01*
X152870979Y-97731278D02*
X152840741Y-97852230D01*
X152840741Y-97852230D02*
X152840741Y-97942945D01*
X152840741Y-97942945D02*
X152870979Y-98063897D01*
X152870979Y-98063897D02*
X152901217Y-98124373D01*
X152901217Y-98124373D02*
X152961693Y-98184850D01*
X152961693Y-98184850D02*
X153052408Y-98215088D01*
X153052408Y-98215088D02*
X153112884Y-98215088D01*
X153112884Y-98215088D02*
X153203598Y-98184850D01*
X153203598Y-98184850D02*
X153233836Y-98154611D01*
X153233836Y-98154611D02*
X153233836Y-97942945D01*
X153233836Y-97942945D02*
X153112884Y-97942945D01*
X153505979Y-98215088D02*
X153505979Y-97580088D01*
X153505979Y-97580088D02*
X153868836Y-98215088D01*
X153868836Y-98215088D02*
X153868836Y-97580088D01*
X154171217Y-98215088D02*
X154171217Y-97580088D01*
X154171217Y-97580088D02*
X154322407Y-97580088D01*
X154322407Y-97580088D02*
X154413122Y-97610326D01*
X154413122Y-97610326D02*
X154473598Y-97670802D01*
X154473598Y-97670802D02*
X154503836Y-97731278D01*
X154503836Y-97731278D02*
X154534074Y-97852230D01*
X154534074Y-97852230D02*
X154534074Y-97942945D01*
X154534074Y-97942945D02*
X154503836Y-98063897D01*
X154503836Y-98063897D02*
X154473598Y-98124373D01*
X154473598Y-98124373D02*
X154413122Y-98184850D01*
X154413122Y-98184850D02*
X154322407Y-98215088D01*
X154322407Y-98215088D02*
X154171217Y-98215088D01*
X120135217Y-98199545D02*
X120135217Y-97437545D01*
X120135217Y-97437545D02*
X120570646Y-98199545D01*
X120570646Y-98199545D02*
X120570646Y-97437545D01*
X120933503Y-98199545D02*
X120933503Y-97437545D01*
X120933503Y-97800402D02*
X121368932Y-97800402D01*
X121368932Y-98199545D02*
X121368932Y-97437545D01*
X121731789Y-98199545D02*
X121731789Y-97437545D01*
X121731789Y-97437545D02*
X121913218Y-97437545D01*
X121913218Y-97437545D02*
X122022075Y-97473831D01*
X122022075Y-97473831D02*
X122094646Y-97546402D01*
X122094646Y-97546402D02*
X122130932Y-97618974D01*
X122130932Y-97618974D02*
X122167218Y-97764117D01*
X122167218Y-97764117D02*
X122167218Y-97872974D01*
X122167218Y-97872974D02*
X122130932Y-98018117D01*
X122130932Y-98018117D02*
X122094646Y-98090688D01*
X122094646Y-98090688D02*
X122022075Y-98163260D01*
X122022075Y-98163260D02*
X121913218Y-98199545D01*
X121913218Y-98199545D02*
X121731789Y-98199545D01*
X123074360Y-98199545D02*
X123074360Y-97437545D01*
X123074360Y-97437545D02*
X123255789Y-97437545D01*
X123255789Y-97437545D02*
X123364646Y-97473831D01*
X123364646Y-97473831D02*
X123437217Y-97546402D01*
X123437217Y-97546402D02*
X123473503Y-97618974D01*
X123473503Y-97618974D02*
X123509789Y-97764117D01*
X123509789Y-97764117D02*
X123509789Y-97872974D01*
X123509789Y-97872974D02*
X123473503Y-98018117D01*
X123473503Y-98018117D02*
X123437217Y-98090688D01*
X123437217Y-98090688D02*
X123364646Y-98163260D01*
X123364646Y-98163260D02*
X123255789Y-98199545D01*
X123255789Y-98199545D02*
X123074360Y-98199545D01*
X123836360Y-98199545D02*
X123836360Y-97691545D01*
X123836360Y-97437545D02*
X123800074Y-97473831D01*
X123800074Y-97473831D02*
X123836360Y-97510117D01*
X123836360Y-97510117D02*
X123872646Y-97473831D01*
X123872646Y-97473831D02*
X123836360Y-97437545D01*
X123836360Y-97437545D02*
X123836360Y-97510117D01*
X124162931Y-98163260D02*
X124235503Y-98199545D01*
X124235503Y-98199545D02*
X124380646Y-98199545D01*
X124380646Y-98199545D02*
X124453217Y-98163260D01*
X124453217Y-98163260D02*
X124489503Y-98090688D01*
X124489503Y-98090688D02*
X124489503Y-98054402D01*
X124489503Y-98054402D02*
X124453217Y-97981831D01*
X124453217Y-97981831D02*
X124380646Y-97945545D01*
X124380646Y-97945545D02*
X124271789Y-97945545D01*
X124271789Y-97945545D02*
X124199217Y-97909260D01*
X124199217Y-97909260D02*
X124162931Y-97836688D01*
X124162931Y-97836688D02*
X124162931Y-97800402D01*
X124162931Y-97800402D02*
X124199217Y-97727831D01*
X124199217Y-97727831D02*
X124271789Y-97691545D01*
X124271789Y-97691545D02*
X124380646Y-97691545D01*
X124380646Y-97691545D02*
X124453217Y-97727831D01*
X124816074Y-97691545D02*
X124816074Y-98453545D01*
X124816074Y-97727831D02*
X124888646Y-97691545D01*
X124888646Y-97691545D02*
X125033788Y-97691545D01*
X125033788Y-97691545D02*
X125106360Y-97727831D01*
X125106360Y-97727831D02*
X125142646Y-97764117D01*
X125142646Y-97764117D02*
X125178931Y-97836688D01*
X125178931Y-97836688D02*
X125178931Y-98054402D01*
X125178931Y-98054402D02*
X125142646Y-98126974D01*
X125142646Y-98126974D02*
X125106360Y-98163260D01*
X125106360Y-98163260D02*
X125033788Y-98199545D01*
X125033788Y-98199545D02*
X124888646Y-98199545D01*
X124888646Y-98199545D02*
X124816074Y-98163260D01*
X125614360Y-98199545D02*
X125541789Y-98163260D01*
X125541789Y-98163260D02*
X125505503Y-98090688D01*
X125505503Y-98090688D02*
X125505503Y-97437545D01*
X126231218Y-98199545D02*
X126231218Y-97800402D01*
X126231218Y-97800402D02*
X126194932Y-97727831D01*
X126194932Y-97727831D02*
X126122360Y-97691545D01*
X126122360Y-97691545D02*
X125977218Y-97691545D01*
X125977218Y-97691545D02*
X125904646Y-97727831D01*
X126231218Y-98163260D02*
X126158646Y-98199545D01*
X126158646Y-98199545D02*
X125977218Y-98199545D01*
X125977218Y-98199545D02*
X125904646Y-98163260D01*
X125904646Y-98163260D02*
X125868360Y-98090688D01*
X125868360Y-98090688D02*
X125868360Y-98018117D01*
X125868360Y-98018117D02*
X125904646Y-97945545D01*
X125904646Y-97945545D02*
X125977218Y-97909260D01*
X125977218Y-97909260D02*
X126158646Y-97909260D01*
X126158646Y-97909260D02*
X126231218Y-97872974D01*
X126521504Y-97691545D02*
X126702932Y-98199545D01*
X126884361Y-97691545D02*
X126702932Y-98199545D01*
X126702932Y-98199545D02*
X126630361Y-98380974D01*
X126630361Y-98380974D02*
X126594075Y-98417260D01*
X126594075Y-98417260D02*
X126521504Y-98453545D01*
X128190646Y-98126974D02*
X128154360Y-98163260D01*
X128154360Y-98163260D02*
X128045503Y-98199545D01*
X128045503Y-98199545D02*
X127972931Y-98199545D01*
X127972931Y-98199545D02*
X127864074Y-98163260D01*
X127864074Y-98163260D02*
X127791503Y-98090688D01*
X127791503Y-98090688D02*
X127755217Y-98018117D01*
X127755217Y-98018117D02*
X127718931Y-97872974D01*
X127718931Y-97872974D02*
X127718931Y-97764117D01*
X127718931Y-97764117D02*
X127755217Y-97618974D01*
X127755217Y-97618974D02*
X127791503Y-97546402D01*
X127791503Y-97546402D02*
X127864074Y-97473831D01*
X127864074Y-97473831D02*
X127972931Y-97437545D01*
X127972931Y-97437545D02*
X128045503Y-97437545D01*
X128045503Y-97437545D02*
X128154360Y-97473831D01*
X128154360Y-97473831D02*
X128190646Y-97510117D01*
X128626074Y-98199545D02*
X128553503Y-98163260D01*
X128553503Y-98163260D02*
X128517217Y-98126974D01*
X128517217Y-98126974D02*
X128480931Y-98054402D01*
X128480931Y-98054402D02*
X128480931Y-97836688D01*
X128480931Y-97836688D02*
X128517217Y-97764117D01*
X128517217Y-97764117D02*
X128553503Y-97727831D01*
X128553503Y-97727831D02*
X128626074Y-97691545D01*
X128626074Y-97691545D02*
X128734931Y-97691545D01*
X128734931Y-97691545D02*
X128807503Y-97727831D01*
X128807503Y-97727831D02*
X128843789Y-97764117D01*
X128843789Y-97764117D02*
X128880074Y-97836688D01*
X128880074Y-97836688D02*
X128880074Y-98054402D01*
X128880074Y-98054402D02*
X128843789Y-98126974D01*
X128843789Y-98126974D02*
X128807503Y-98163260D01*
X128807503Y-98163260D02*
X128734931Y-98199545D01*
X128734931Y-98199545D02*
X128626074Y-98199545D01*
X129206646Y-97691545D02*
X129206646Y-98199545D01*
X129206646Y-97764117D02*
X129242932Y-97727831D01*
X129242932Y-97727831D02*
X129315503Y-97691545D01*
X129315503Y-97691545D02*
X129424360Y-97691545D01*
X129424360Y-97691545D02*
X129496932Y-97727831D01*
X129496932Y-97727831D02*
X129533218Y-97800402D01*
X129533218Y-97800402D02*
X129533218Y-98199545D01*
X129896075Y-97691545D02*
X129896075Y-98199545D01*
X129896075Y-97764117D02*
X129932361Y-97727831D01*
X129932361Y-97727831D02*
X130004932Y-97691545D01*
X130004932Y-97691545D02*
X130113789Y-97691545D01*
X130113789Y-97691545D02*
X130186361Y-97727831D01*
X130186361Y-97727831D02*
X130222647Y-97800402D01*
X130222647Y-97800402D02*
X130222647Y-98199545D01*
X130875790Y-98163260D02*
X130803218Y-98199545D01*
X130803218Y-98199545D02*
X130658076Y-98199545D01*
X130658076Y-98199545D02*
X130585504Y-98163260D01*
X130585504Y-98163260D02*
X130549218Y-98090688D01*
X130549218Y-98090688D02*
X130549218Y-97800402D01*
X130549218Y-97800402D02*
X130585504Y-97727831D01*
X130585504Y-97727831D02*
X130658076Y-97691545D01*
X130658076Y-97691545D02*
X130803218Y-97691545D01*
X130803218Y-97691545D02*
X130875790Y-97727831D01*
X130875790Y-97727831D02*
X130912076Y-97800402D01*
X130912076Y-97800402D02*
X130912076Y-97872974D01*
X130912076Y-97872974D02*
X130549218Y-97945545D01*
X131565219Y-98163260D02*
X131492647Y-98199545D01*
X131492647Y-98199545D02*
X131347504Y-98199545D01*
X131347504Y-98199545D02*
X131274933Y-98163260D01*
X131274933Y-98163260D02*
X131238647Y-98126974D01*
X131238647Y-98126974D02*
X131202361Y-98054402D01*
X131202361Y-98054402D02*
X131202361Y-97836688D01*
X131202361Y-97836688D02*
X131238647Y-97764117D01*
X131238647Y-97764117D02*
X131274933Y-97727831D01*
X131274933Y-97727831D02*
X131347504Y-97691545D01*
X131347504Y-97691545D02*
X131492647Y-97691545D01*
X131492647Y-97691545D02*
X131565219Y-97727831D01*
X131782933Y-97691545D02*
X132073219Y-97691545D01*
X131891790Y-97437545D02*
X131891790Y-98090688D01*
X131891790Y-98090688D02*
X131928076Y-98163260D01*
X131928076Y-98163260D02*
X132000647Y-98199545D01*
X132000647Y-98199545D02*
X132073219Y-98199545D01*
X132436076Y-98199545D02*
X132363505Y-98163260D01*
X132363505Y-98163260D02*
X132327219Y-98126974D01*
X132327219Y-98126974D02*
X132290933Y-98054402D01*
X132290933Y-98054402D02*
X132290933Y-97836688D01*
X132290933Y-97836688D02*
X132327219Y-97764117D01*
X132327219Y-97764117D02*
X132363505Y-97727831D01*
X132363505Y-97727831D02*
X132436076Y-97691545D01*
X132436076Y-97691545D02*
X132544933Y-97691545D01*
X132544933Y-97691545D02*
X132617505Y-97727831D01*
X132617505Y-97727831D02*
X132653791Y-97764117D01*
X132653791Y-97764117D02*
X132690076Y-97836688D01*
X132690076Y-97836688D02*
X132690076Y-98054402D01*
X132690076Y-98054402D02*
X132653791Y-98126974D01*
X132653791Y-98126974D02*
X132617505Y-98163260D01*
X132617505Y-98163260D02*
X132544933Y-98199545D01*
X132544933Y-98199545D02*
X132436076Y-98199545D01*
X133016648Y-98199545D02*
X133016648Y-97691545D01*
X133016648Y-97836688D02*
X133052934Y-97764117D01*
X133052934Y-97764117D02*
X133089220Y-97727831D01*
X133089220Y-97727831D02*
X133161791Y-97691545D01*
X133161791Y-97691545D02*
X133234362Y-97691545D01*
X134032647Y-97510117D02*
X134068933Y-97473831D01*
X134068933Y-97473831D02*
X134141505Y-97437545D01*
X134141505Y-97437545D02*
X134322933Y-97437545D01*
X134322933Y-97437545D02*
X134395505Y-97473831D01*
X134395505Y-97473831D02*
X134431790Y-97510117D01*
X134431790Y-97510117D02*
X134468076Y-97582688D01*
X134468076Y-97582688D02*
X134468076Y-97655260D01*
X134468076Y-97655260D02*
X134431790Y-97764117D01*
X134431790Y-97764117D02*
X133996362Y-98199545D01*
X133996362Y-98199545D02*
X134468076Y-98199545D01*
X135121219Y-97691545D02*
X135121219Y-98199545D01*
X134939790Y-97401260D02*
X134758361Y-97945545D01*
X134758361Y-97945545D02*
X135230076Y-97945545D01*
X135919504Y-98199545D02*
X135484075Y-98199545D01*
X135701790Y-98199545D02*
X135701790Y-97437545D01*
X135701790Y-97437545D02*
X135629218Y-97546402D01*
X135629218Y-97546402D02*
X135556647Y-97618974D01*
X135556647Y-97618974D02*
X135484075Y-97655260D01*
X136391218Y-97437545D02*
X136463789Y-97437545D01*
X136463789Y-97437545D02*
X136536361Y-97473831D01*
X136536361Y-97473831D02*
X136572647Y-97510117D01*
X136572647Y-97510117D02*
X136608932Y-97582688D01*
X136608932Y-97582688D02*
X136645218Y-97727831D01*
X136645218Y-97727831D02*
X136645218Y-97909260D01*
X136645218Y-97909260D02*
X136608932Y-98054402D01*
X136608932Y-98054402D02*
X136572647Y-98126974D01*
X136572647Y-98126974D02*
X136536361Y-98163260D01*
X136536361Y-98163260D02*
X136463789Y-98199545D01*
X136463789Y-98199545D02*
X136391218Y-98199545D01*
X136391218Y-98199545D02*
X136318647Y-98163260D01*
X136318647Y-98163260D02*
X136282361Y-98126974D01*
X136282361Y-98126974D02*
X136246075Y-98054402D01*
X136246075Y-98054402D02*
X136209789Y-97909260D01*
X136209789Y-97909260D02*
X136209789Y-97727831D01*
X136209789Y-97727831D02*
X136246075Y-97582688D01*
X136246075Y-97582688D02*
X136282361Y-97510117D01*
X136282361Y-97510117D02*
X136318647Y-97473831D01*
X136318647Y-97473831D02*
X136391218Y-97437545D01*
X137370932Y-98199545D02*
X136935503Y-98199545D01*
X137153218Y-98199545D02*
X137153218Y-97437545D01*
X137153218Y-97437545D02*
X137080646Y-97546402D01*
X137080646Y-97546402D02*
X137008075Y-97618974D01*
X137008075Y-97618974D02*
X136935503Y-97655260D01*
X138060360Y-97437545D02*
X137697503Y-97437545D01*
X137697503Y-97437545D02*
X137661217Y-97800402D01*
X137661217Y-97800402D02*
X137697503Y-97764117D01*
X137697503Y-97764117D02*
X137770075Y-97727831D01*
X137770075Y-97727831D02*
X137951503Y-97727831D01*
X137951503Y-97727831D02*
X138024075Y-97764117D01*
X138024075Y-97764117D02*
X138060360Y-97800402D01*
X138060360Y-97800402D02*
X138096646Y-97872974D01*
X138096646Y-97872974D02*
X138096646Y-98054402D01*
X138096646Y-98054402D02*
X138060360Y-98126974D01*
X138060360Y-98126974D02*
X138024075Y-98163260D01*
X138024075Y-98163260D02*
X137951503Y-98199545D01*
X137951503Y-98199545D02*
X137770075Y-98199545D01*
X137770075Y-98199545D02*
X137697503Y-98163260D01*
X137697503Y-98163260D02*
X137661217Y-98126974D01*
X149568979Y-97973183D02*
X150052789Y-97973183D01*
X149810884Y-98215088D02*
X149810884Y-97731278D01*
X150294693Y-97580088D02*
X150687788Y-97580088D01*
X150687788Y-97580088D02*
X150476121Y-97821992D01*
X150476121Y-97821992D02*
X150566836Y-97821992D01*
X150566836Y-97821992D02*
X150627312Y-97852230D01*
X150627312Y-97852230D02*
X150657550Y-97882469D01*
X150657550Y-97882469D02*
X150687788Y-97942945D01*
X150687788Y-97942945D02*
X150687788Y-98094135D01*
X150687788Y-98094135D02*
X150657550Y-98154611D01*
X150657550Y-98154611D02*
X150627312Y-98184850D01*
X150627312Y-98184850D02*
X150566836Y-98215088D01*
X150566836Y-98215088D02*
X150385407Y-98215088D01*
X150385407Y-98215088D02*
X150324931Y-98184850D01*
X150324931Y-98184850D02*
X150294693Y-98154611D01*
X150959931Y-98154611D02*
X150990169Y-98184850D01*
X150990169Y-98184850D02*
X150959931Y-98215088D01*
X150959931Y-98215088D02*
X150929693Y-98184850D01*
X150929693Y-98184850D02*
X150959931Y-98154611D01*
X150959931Y-98154611D02*
X150959931Y-98215088D01*
X151201836Y-97580088D02*
X151594931Y-97580088D01*
X151594931Y-97580088D02*
X151383264Y-97821992D01*
X151383264Y-97821992D02*
X151473979Y-97821992D01*
X151473979Y-97821992D02*
X151534455Y-97852230D01*
X151534455Y-97852230D02*
X151564693Y-97882469D01*
X151564693Y-97882469D02*
X151594931Y-97942945D01*
X151594931Y-97942945D02*
X151594931Y-98094135D01*
X151594931Y-98094135D02*
X151564693Y-98154611D01*
X151564693Y-98154611D02*
X151534455Y-98184850D01*
X151534455Y-98184850D02*
X151473979Y-98215088D01*
X151473979Y-98215088D02*
X151292550Y-98215088D01*
X151292550Y-98215088D02*
X151232074Y-98184850D01*
X151232074Y-98184850D02*
X151201836Y-98154611D01*
X151776360Y-97580088D02*
X151988026Y-98215088D01*
X151988026Y-98215088D02*
X152199693Y-97580088D01*
D11*
%TO.C,G\u002A\u002A\u002A*%
G36*
X117985117Y-95514363D02*
G01*
X118114234Y-95516700D01*
X118114234Y-96155933D01*
X118114234Y-96795166D01*
X117990978Y-96797500D01*
X117946890Y-96797945D01*
X117908949Y-96797590D01*
X117880317Y-96796523D01*
X117864153Y-96794829D01*
X117861862Y-96793972D01*
X117860921Y-96784766D01*
X117860027Y-96759949D01*
X117859192Y-96720841D01*
X117858428Y-96668766D01*
X117857746Y-96605044D01*
X117857159Y-96530999D01*
X117856679Y-96447950D01*
X117856318Y-96357221D01*
X117856088Y-96260133D01*
X117856001Y-96158008D01*
X117856000Y-96150068D01*
X117856000Y-95512025D01*
X117985117Y-95514363D01*
G37*
G36*
X116403869Y-96250475D02*
G01*
X116414375Y-96273657D01*
X116429729Y-96307943D01*
X116448959Y-96351130D01*
X116471091Y-96401013D01*
X116495152Y-96455391D01*
X116520170Y-96512058D01*
X116545171Y-96568813D01*
X116569182Y-96623452D01*
X116591231Y-96673771D01*
X116610344Y-96717567D01*
X116625548Y-96752637D01*
X116633800Y-96771883D01*
X116645494Y-96799400D01*
X116518380Y-96799400D01*
X116391267Y-96799400D01*
X116391524Y-96513650D01*
X116391799Y-96440924D01*
X116392458Y-96377219D01*
X116393462Y-96323963D01*
X116394770Y-96282585D01*
X116396342Y-96254514D01*
X116398139Y-96241178D01*
X116399184Y-96240600D01*
X116403869Y-96250475D01*
G37*
G36*
X117125186Y-96231665D02*
G01*
X117125941Y-96253983D01*
X117126603Y-96289419D01*
X117127150Y-96336065D01*
X117127558Y-96392012D01*
X117127803Y-96455354D01*
X117127867Y-96510122D01*
X117127867Y-96799400D01*
X117000867Y-96799400D01*
X116956670Y-96799142D01*
X116919163Y-96798432D01*
X116891271Y-96797364D01*
X116875923Y-96796033D01*
X116873867Y-96795298D01*
X116877143Y-96786765D01*
X116886353Y-96764865D01*
X116900569Y-96731708D01*
X116918866Y-96689409D01*
X116940315Y-96640079D01*
X116963991Y-96585832D01*
X116988966Y-96528780D01*
X117014312Y-96471037D01*
X117039104Y-96414714D01*
X117062413Y-96361925D01*
X117083314Y-96314782D01*
X117100879Y-96275398D01*
X117114181Y-96245886D01*
X117122293Y-96228359D01*
X117124363Y-96224372D01*
X117125186Y-96231665D01*
G37*
G36*
X117597456Y-94758933D02*
G01*
X117619626Y-94824187D01*
X117645316Y-94875394D01*
X117677261Y-94915291D01*
X117718194Y-94946617D01*
X117770852Y-94972108D01*
X117830600Y-94992346D01*
X117858464Y-95001519D01*
X117876776Y-95009376D01*
X117882591Y-95014579D01*
X117881400Y-95015442D01*
X117867460Y-95019903D01*
X117842408Y-95027726D01*
X117811323Y-95037326D01*
X117807023Y-95038647D01*
X117750157Y-95059512D01*
X117705090Y-95084852D01*
X117669219Y-95117385D01*
X117639944Y-95159827D01*
X117614661Y-95214894D01*
X117600665Y-95254099D01*
X117590155Y-95283061D01*
X117581186Y-95302793D01*
X117575155Y-95310430D01*
X117573805Y-95309267D01*
X117568973Y-95294476D01*
X117561136Y-95269819D01*
X117554920Y-95250000D01*
X117531647Y-95186710D01*
X117504356Y-95137420D01*
X117470152Y-95099231D01*
X117426135Y-95069248D01*
X117369410Y-95044571D01*
X117339534Y-95034603D01*
X117311716Y-95025867D01*
X117289337Y-95018723D01*
X117280267Y-95015740D01*
X117282028Y-95011488D01*
X117297177Y-95003629D01*
X117322900Y-94993480D01*
X117341203Y-94987180D01*
X117403597Y-94963584D01*
X117451994Y-94937085D01*
X117489331Y-94904691D01*
X117518543Y-94863411D01*
X117542567Y-94810255D01*
X117556949Y-94767400D01*
X117578957Y-94695434D01*
X117597456Y-94758933D01*
G37*
G36*
X117695731Y-95514335D02*
G01*
X117720487Y-95516203D01*
X117734388Y-95519491D01*
X117738809Y-95522815D01*
X117739927Y-95532851D01*
X117740991Y-95558468D01*
X117741987Y-95598313D01*
X117742901Y-95651034D01*
X117743717Y-95715278D01*
X117744419Y-95789693D01*
X117744995Y-95872926D01*
X117745427Y-95963625D01*
X117745702Y-96060438D01*
X117745804Y-96156357D01*
X117745763Y-96281094D01*
X117745576Y-96389774D01*
X117745230Y-96483270D01*
X117744710Y-96562456D01*
X117744002Y-96628207D01*
X117743093Y-96681398D01*
X117741968Y-96722902D01*
X117740614Y-96753595D01*
X117739017Y-96774350D01*
X117737164Y-96786043D01*
X117735773Y-96789240D01*
X117722774Y-96793881D01*
X117696964Y-96797220D01*
X117662228Y-96799279D01*
X117622452Y-96800078D01*
X117581522Y-96799639D01*
X117543323Y-96797981D01*
X117511740Y-96795128D01*
X117490659Y-96791098D01*
X117484449Y-96787883D01*
X117482514Y-96780292D01*
X117480866Y-96762069D01*
X117479497Y-96732516D01*
X117478399Y-96690935D01*
X117477564Y-96636628D01*
X117476984Y-96568895D01*
X117476650Y-96487040D01*
X117476556Y-96390364D01*
X117476692Y-96278169D01*
X117477051Y-96149757D01*
X117477062Y-96146533D01*
X117479234Y-95516700D01*
X117605589Y-95514348D01*
X117658103Y-95513760D01*
X117695731Y-95514335D01*
G37*
G36*
X116785865Y-94947755D02*
G01*
X116818536Y-95056736D01*
X116851737Y-95149593D01*
X116885362Y-95226059D01*
X116919304Y-95285863D01*
X116919475Y-95286122D01*
X116965322Y-95343667D01*
X117022789Y-95395028D01*
X117093079Y-95440967D01*
X117177395Y-95482248D01*
X117276942Y-95519636D01*
X117298316Y-95526565D01*
X117398995Y-95558456D01*
X117299414Y-95590630D01*
X117197809Y-95627347D01*
X117111658Y-95667126D01*
X117039626Y-95710814D01*
X116980379Y-95759258D01*
X116932584Y-95813306D01*
X116919475Y-95831945D01*
X116885532Y-95891664D01*
X116851906Y-95968046D01*
X116818702Y-96060822D01*
X116786028Y-96169722D01*
X116785865Y-96170312D01*
X116748834Y-96304100D01*
X116738702Y-96266000D01*
X116712281Y-96169165D01*
X116688211Y-96087015D01*
X116665653Y-96017606D01*
X116643767Y-95958992D01*
X116621713Y-95909229D01*
X116598650Y-95866371D01*
X116573739Y-95828475D01*
X116546138Y-95793596D01*
X116524102Y-95769230D01*
X116480358Y-95728350D01*
X116430227Y-95692157D01*
X116371107Y-95659208D01*
X116300397Y-95628058D01*
X116215492Y-95597266D01*
X116211941Y-95596080D01*
X116172853Y-95582974D01*
X116140081Y-95571814D01*
X116116701Y-95563660D01*
X116105787Y-95559573D01*
X116105387Y-95559355D01*
X116112044Y-95556178D01*
X116131833Y-95548978D01*
X116161734Y-95538808D01*
X116198725Y-95526723D01*
X116200386Y-95526190D01*
X116249945Y-95508854D01*
X116304285Y-95487534D01*
X116355317Y-95465497D01*
X116381286Y-95453138D01*
X116425270Y-95429836D01*
X116459336Y-95408024D01*
X116489459Y-95383348D01*
X116521615Y-95351455D01*
X116523354Y-95349624D01*
X116553559Y-95315591D01*
X116580421Y-95280055D01*
X116604783Y-95241065D01*
X116627492Y-95196668D01*
X116649391Y-95144913D01*
X116671325Y-95083849D01*
X116694140Y-95011522D01*
X116718680Y-94925982D01*
X116738702Y-94852067D01*
X116748834Y-94813966D01*
X116785865Y-94947755D01*
G37*
G36*
X114711211Y-95502969D02*
G01*
X114807892Y-95524783D01*
X114897872Y-95561653D01*
X114982418Y-95614112D01*
X115062800Y-95682692D01*
X115070467Y-95690266D01*
X115140413Y-95769805D01*
X115194160Y-95852904D01*
X115232245Y-95940963D01*
X115255207Y-96035381D01*
X115263585Y-96137556D01*
X115262582Y-96189800D01*
X115257187Y-96259827D01*
X115247568Y-96319156D01*
X115232245Y-96373797D01*
X115209740Y-96429759D01*
X115196765Y-96457199D01*
X115144775Y-96544391D01*
X115079486Y-96622421D01*
X115002688Y-96689812D01*
X114916174Y-96745086D01*
X114821734Y-96786764D01*
X114782368Y-96799233D01*
X114723600Y-96811627D01*
X114656029Y-96819152D01*
X114586323Y-96821506D01*
X114521151Y-96818386D01*
X114482033Y-96812829D01*
X114389430Y-96789168D01*
X114307526Y-96755679D01*
X114232365Y-96710257D01*
X114159987Y-96650798D01*
X114138385Y-96630066D01*
X114069589Y-96552765D01*
X114016483Y-96471736D01*
X113977874Y-96384551D01*
X113952569Y-96288786D01*
X113944357Y-96235494D01*
X113941179Y-96164400D01*
X114212684Y-96164400D01*
X114220938Y-96248563D01*
X114244070Y-96325499D01*
X114281185Y-96394026D01*
X114331386Y-96452964D01*
X114393775Y-96501133D01*
X114467455Y-96537350D01*
X114505440Y-96549826D01*
X114548462Y-96557181D01*
X114600899Y-96559046D01*
X114656231Y-96555658D01*
X114707937Y-96547254D01*
X114728831Y-96541730D01*
X114792604Y-96513825D01*
X114852221Y-96471966D01*
X114904625Y-96419096D01*
X114946756Y-96358160D01*
X114969283Y-96310236D01*
X114982195Y-96263335D01*
X114990321Y-96206967D01*
X114993163Y-96148049D01*
X114990221Y-96093494D01*
X114986572Y-96070716D01*
X114962336Y-95992765D01*
X114924739Y-95923813D01*
X114875319Y-95865124D01*
X114815615Y-95817963D01*
X114747169Y-95783594D01*
X114671518Y-95763281D01*
X114605822Y-95758000D01*
X114523538Y-95765161D01*
X114449515Y-95786923D01*
X114382761Y-95823703D01*
X114322286Y-95875918D01*
X114319866Y-95878457D01*
X114271458Y-95939940D01*
X114237914Y-96007033D01*
X114218553Y-96081559D01*
X114212684Y-96164400D01*
X113941179Y-96164400D01*
X113939700Y-96131327D01*
X113950700Y-96030930D01*
X113976277Y-95935511D01*
X114015350Y-95846279D01*
X114066838Y-95764440D01*
X114129660Y-95691202D01*
X114202735Y-95627772D01*
X114284983Y-95575358D01*
X114375323Y-95535167D01*
X114472673Y-95508407D01*
X114575954Y-95496286D01*
X114606560Y-95495680D01*
X114711211Y-95502969D01*
G37*
G36*
X113556199Y-95500151D02*
G01*
X113595674Y-95501611D01*
X113626887Y-95504609D01*
X113654169Y-95509608D01*
X113681851Y-95517070D01*
X113690102Y-95519612D01*
X113772164Y-95550372D01*
X113843973Y-95588742D01*
X113903081Y-95630983D01*
X113936410Y-95658628D01*
X113956882Y-95679465D01*
X113965460Y-95696466D01*
X113963109Y-95712606D01*
X113950794Y-95730858D01*
X113939560Y-95743482D01*
X113898098Y-95787904D01*
X113866482Y-95821038D01*
X113843306Y-95844249D01*
X113827164Y-95858901D01*
X113816650Y-95866360D01*
X113811244Y-95868067D01*
X113799120Y-95863552D01*
X113777830Y-95851709D01*
X113751959Y-95835091D01*
X113751688Y-95834906D01*
X113690136Y-95798348D01*
X113629854Y-95774912D01*
X113564750Y-95762472D01*
X113537625Y-95760194D01*
X113453464Y-95761705D01*
X113378139Y-95777239D01*
X113310343Y-95807260D01*
X113248769Y-95852232D01*
X113231009Y-95869013D01*
X113179619Y-95931461D01*
X113143365Y-96001255D01*
X113122166Y-96078627D01*
X113115938Y-96163808D01*
X113116909Y-96189800D01*
X113129638Y-96272638D01*
X113156674Y-96347300D01*
X113196928Y-96412668D01*
X113249315Y-96467622D01*
X113312747Y-96511045D01*
X113386137Y-96541817D01*
X113468399Y-96558819D01*
X113476194Y-96559635D01*
X113544108Y-96558927D01*
X113615554Y-96545471D01*
X113685133Y-96520907D01*
X113747448Y-96486878D01*
X113769881Y-96470379D01*
X113790032Y-96455040D01*
X113804869Y-96445437D01*
X113809055Y-96443800D01*
X113817731Y-96449631D01*
X113834921Y-96465208D01*
X113857854Y-96487654D01*
X113883755Y-96514091D01*
X113909851Y-96541642D01*
X113933371Y-96567431D01*
X113951540Y-96588581D01*
X113961334Y-96601781D01*
X113967348Y-96613595D01*
X113967379Y-96623396D01*
X113959468Y-96635022D01*
X113941652Y-96652311D01*
X113930255Y-96662626D01*
X113849782Y-96723909D01*
X113761069Y-96770924D01*
X113665664Y-96803226D01*
X113565111Y-96820366D01*
X113460956Y-96821899D01*
X113400868Y-96815662D01*
X113302058Y-96792716D01*
X113207887Y-96753932D01*
X113119935Y-96700123D01*
X113039784Y-96632107D01*
X113034234Y-96626559D01*
X112967649Y-96550118D01*
X112916312Y-96469882D01*
X112878553Y-96382779D01*
X112855045Y-96297141D01*
X112847549Y-96243766D01*
X112844749Y-96180815D01*
X112846402Y-96114023D01*
X112852261Y-96049125D01*
X112862085Y-95991854D01*
X112869168Y-95965433D01*
X112909842Y-95863740D01*
X112963513Y-95772761D01*
X113029662Y-95693012D01*
X113107766Y-95625012D01*
X113197306Y-95569278D01*
X113297760Y-95526327D01*
X113318231Y-95519592D01*
X113346764Y-95511380D01*
X113373725Y-95505756D01*
X113403443Y-95502257D01*
X113440248Y-95500423D01*
X113488468Y-95499791D01*
X113504134Y-95499767D01*
X113556199Y-95500151D01*
G37*
G36*
X118910804Y-95500192D02*
G01*
X118949899Y-95501796D01*
X118981095Y-95505073D01*
X119008905Y-95510515D01*
X119037838Y-95518615D01*
X119041120Y-95519638D01*
X119106460Y-95542926D01*
X119163077Y-95570029D01*
X119218376Y-95604786D01*
X119250506Y-95628250D01*
X119285344Y-95655951D01*
X119306886Y-95677346D01*
X119316183Y-95695119D01*
X119314288Y-95711958D01*
X119302252Y-95730549D01*
X119294178Y-95739797D01*
X119246246Y-95791423D01*
X119208871Y-95829822D01*
X119182046Y-95855004D01*
X119165762Y-95866975D01*
X119162153Y-95868067D01*
X119150042Y-95863552D01*
X119128762Y-95851710D01*
X119102895Y-95835093D01*
X119102621Y-95834906D01*
X119041069Y-95798348D01*
X118980787Y-95774912D01*
X118915684Y-95762472D01*
X118888558Y-95760194D01*
X118804875Y-95761694D01*
X118729944Y-95777195D01*
X118662239Y-95807241D01*
X118600231Y-95852377D01*
X118581942Y-95869502D01*
X118530663Y-95931358D01*
X118494425Y-96000833D01*
X118473176Y-96078074D01*
X118466863Y-96163228D01*
X118467842Y-96189800D01*
X118477975Y-96264797D01*
X118499799Y-96331074D01*
X118535094Y-96393643D01*
X118545513Y-96408319D01*
X118596530Y-96464019D01*
X118657014Y-96507288D01*
X118724674Y-96537880D01*
X118797219Y-96555549D01*
X118872358Y-96560050D01*
X118947799Y-96551135D01*
X119021253Y-96528560D01*
X119090426Y-96492079D01*
X119120814Y-96470055D01*
X119141165Y-96454852D01*
X119156337Y-96445374D01*
X119160672Y-96443800D01*
X119169552Y-96449664D01*
X119186906Y-96465342D01*
X119209992Y-96487965D01*
X119236065Y-96514664D01*
X119262381Y-96542570D01*
X119286198Y-96568812D01*
X119304771Y-96590521D01*
X119315356Y-96604828D01*
X119316256Y-96606512D01*
X119318942Y-96617564D01*
X119314448Y-96629201D01*
X119300586Y-96644928D01*
X119280944Y-96663112D01*
X119199872Y-96724480D01*
X119110708Y-96771464D01*
X119014959Y-96803630D01*
X118914135Y-96820542D01*
X118809743Y-96821767D01*
X118751801Y-96815662D01*
X118652764Y-96792687D01*
X118558568Y-96753903D01*
X118470768Y-96700115D01*
X118390920Y-96632125D01*
X118385167Y-96626345D01*
X118317108Y-96547651D01*
X118264761Y-96465258D01*
X118227545Y-96377607D01*
X118204881Y-96283142D01*
X118196185Y-96180304D01*
X118197033Y-96122067D01*
X118207589Y-96022076D01*
X118230492Y-95931854D01*
X118266869Y-95848863D01*
X118317849Y-95770563D01*
X118384559Y-95694416D01*
X118389035Y-95689911D01*
X118426542Y-95653391D01*
X118457475Y-95626175D01*
X118486417Y-95604832D01*
X118517954Y-95585930D01*
X118550267Y-95569197D01*
X118606687Y-95542709D01*
X118655970Y-95523726D01*
X118703230Y-95511100D01*
X118753580Y-95503680D01*
X118812134Y-95500320D01*
X118859300Y-95499767D01*
X118910804Y-95500192D01*
G37*
G36*
X115802468Y-95503800D02*
G01*
X115855886Y-95514762D01*
X115904316Y-95532431D01*
X115953561Y-95558474D01*
X115957593Y-95560899D01*
X116005543Y-95592174D01*
X116044740Y-95622236D01*
X116073468Y-95649495D01*
X116090007Y-95672360D01*
X116093294Y-95686541D01*
X116086810Y-95701594D01*
X116071757Y-95725296D01*
X116051019Y-95753997D01*
X116027480Y-95784046D01*
X116004023Y-95811793D01*
X115983533Y-95833587D01*
X115968892Y-95845779D01*
X115966664Y-95846839D01*
X115951785Y-95844226D01*
X115926766Y-95830570D01*
X115897911Y-95810271D01*
X115837267Y-95772014D01*
X115776759Y-95748552D01*
X115717973Y-95740192D01*
X115662494Y-95747239D01*
X115631709Y-95758867D01*
X115597922Y-95781982D01*
X115577875Y-95813081D01*
X115570180Y-95854516D01*
X115570000Y-95863388D01*
X115572636Y-95889808D01*
X115581692Y-95913230D01*
X115598889Y-95935163D01*
X115625948Y-95957117D01*
X115664590Y-95980602D01*
X115716536Y-96007127D01*
X115753978Y-96024748D01*
X115827244Y-96059238D01*
X115886877Y-96089063D01*
X115935095Y-96115520D01*
X115974116Y-96139903D01*
X116006157Y-96163508D01*
X116033436Y-96187630D01*
X116034383Y-96188550D01*
X116081686Y-96246044D01*
X116114447Y-96311800D01*
X116132336Y-96384866D01*
X116135021Y-96464296D01*
X116134259Y-96474767D01*
X116119886Y-96553702D01*
X116091177Y-96623922D01*
X116048737Y-96684684D01*
X115993173Y-96735240D01*
X115925090Y-96774845D01*
X115874800Y-96794238D01*
X115819878Y-96807889D01*
X115757971Y-96816928D01*
X115695872Y-96820743D01*
X115640372Y-96818723D01*
X115625034Y-96816731D01*
X115562788Y-96804181D01*
X115508483Y-96786738D01*
X115453243Y-96761489D01*
X115447280Y-96758399D01*
X115412728Y-96737604D01*
X115377208Y-96711631D01*
X115343591Y-96683151D01*
X115314748Y-96654840D01*
X115293549Y-96629369D01*
X115282863Y-96609413D01*
X115282134Y-96604590D01*
X115287554Y-96589720D01*
X115301953Y-96566769D01*
X115322533Y-96539047D01*
X115346498Y-96509861D01*
X115371051Y-96482521D01*
X115393397Y-96460336D01*
X115410738Y-96446614D01*
X115418024Y-96443800D01*
X115431648Y-96449126D01*
X115453226Y-96463179D01*
X115478390Y-96483070D01*
X115481624Y-96485870D01*
X115544692Y-96532074D01*
X115609393Y-96562098D01*
X115674919Y-96575772D01*
X115740460Y-96572926D01*
X115804724Y-96553600D01*
X115840138Y-96530128D01*
X115863531Y-96497814D01*
X115874634Y-96460006D01*
X115873181Y-96420053D01*
X115858903Y-96381303D01*
X115831531Y-96347105D01*
X115821892Y-96339110D01*
X115805008Y-96328539D01*
X115775942Y-96312691D01*
X115737953Y-96293246D01*
X115694297Y-96271886D01*
X115663134Y-96257170D01*
X115584121Y-96219075D01*
X115519375Y-96184562D01*
X115466989Y-96152192D01*
X115425056Y-96120530D01*
X115391671Y-96088138D01*
X115364927Y-96053580D01*
X115343223Y-96016025D01*
X115324992Y-95967512D01*
X115313107Y-95910282D01*
X115308841Y-95851773D01*
X115310118Y-95822635D01*
X115324946Y-95745706D01*
X115353611Y-95677697D01*
X115395111Y-95619368D01*
X115448447Y-95571477D01*
X115512619Y-95534783D01*
X115586627Y-95510043D01*
X115669470Y-95498018D01*
X115738259Y-95497878D01*
X115802468Y-95503800D01*
G37*
D12*
%TO.C,J1*%
X112950000Y-98884000D02*
X114280000Y-98884000D01*
X112950000Y-99994000D02*
X112950000Y-98884000D01*
X112950000Y-101454000D02*
X163870000Y-101454000D01*
X112980000Y-104494000D02*
X112980000Y-101494000D01*
X113920000Y-101454000D02*
X113920000Y-101104000D01*
X114640000Y-101454000D02*
X114640000Y-101104000D01*
X116460000Y-101454000D02*
X116460000Y-101044000D01*
X117180000Y-101454000D02*
X117180000Y-101044000D01*
X119000000Y-101454000D02*
X119000000Y-101044000D01*
X119720000Y-101454000D02*
X119720000Y-101044000D01*
X121540000Y-101454000D02*
X121540000Y-101044000D01*
X122260000Y-101454000D02*
X122260000Y-101044000D01*
X124080000Y-101454000D02*
X124080000Y-101044000D01*
X124800000Y-101454000D02*
X124800000Y-101044000D01*
X126620000Y-101454000D02*
X126620000Y-101044000D01*
X127340000Y-101454000D02*
X127340000Y-101044000D01*
X129160000Y-101454000D02*
X129160000Y-101044000D01*
X129880000Y-101454000D02*
X129880000Y-101044000D01*
X131700000Y-101454000D02*
X131700000Y-101044000D01*
X132420000Y-101454000D02*
X132420000Y-101044000D01*
X134240000Y-101454000D02*
X134240000Y-101044000D01*
X134960000Y-101454000D02*
X134960000Y-101044000D01*
X136780000Y-101454000D02*
X136780000Y-101044000D01*
X137500000Y-101454000D02*
X137500000Y-101044000D01*
X139320000Y-101454000D02*
X139320000Y-101044000D01*
X140040000Y-101454000D02*
X140040000Y-101044000D01*
X141860000Y-101454000D02*
X141860000Y-101044000D01*
X142580000Y-101454000D02*
X142580000Y-101044000D01*
X144400000Y-101454000D02*
X144400000Y-101044000D01*
X145120000Y-101454000D02*
X145120000Y-101044000D01*
X146940000Y-101454000D02*
X146940000Y-101044000D01*
X147660000Y-101454000D02*
X147660000Y-101044000D01*
X149480000Y-101454000D02*
X149480000Y-101044000D01*
X150200000Y-101454000D02*
X150200000Y-101044000D01*
X152020000Y-101454000D02*
X152020000Y-101044000D01*
X152740000Y-101454000D02*
X152740000Y-101044000D01*
X154560000Y-101454000D02*
X154560000Y-101044000D01*
X155280000Y-101454000D02*
X155280000Y-101044000D01*
X157100000Y-101454000D02*
X157100000Y-101044000D01*
X157820000Y-101454000D02*
X157820000Y-101044000D01*
X159640000Y-101454000D02*
X159640000Y-101044000D01*
X160360000Y-101454000D02*
X160360000Y-101044000D01*
X162180000Y-101454000D02*
X162180000Y-101044000D01*
X162900000Y-101454000D02*
X162900000Y-101044000D01*
X163880000Y-104494000D02*
X163880000Y-101494000D01*
%TD*%
M02*
