M48
; DRILL file {KiCad 8.0.5} date 2024-10-16T08:17:49-0400
; FORMAT={-:-/ absolute / inch / decimal}
; #@! TF.CreationDate,2024-10-16T08:17:49-04:00
; #@! TF.GenerationSoftware,Kicad,Pcbnew,8.0.5
; #@! TF.FileFunction,Plated,1,2,PTH
FMAT,2
INCH
; #@! TA.AperFunction,Plated,PTH,ComponentDrill
T1C0.0394
%
G90
G05
T1
X4.4992Y-3.9368
X4.5992Y-3.9368
X4.6992Y-3.9368
X4.7992Y-3.9368
X4.8992Y-3.9368
X4.9992Y-3.9368
X5.0992Y-3.9368
X5.1992Y-3.9368
X5.2992Y-3.9368
X5.3992Y-3.9368
X5.4992Y-3.9368
X5.551Y-3.791
X5.5992Y-3.9368
X5.651Y-3.791
X5.6992Y-3.9368
X5.751Y-3.791
X5.7992Y-3.9368
X5.851Y-3.791
X5.8992Y-3.9368
X5.951Y-3.791
X5.9992Y-3.9368
X6.051Y-3.791
X6.0992Y-3.9368
X6.1992Y-3.9368
X6.25Y-3.79
X6.2992Y-3.9368
X6.3992Y-3.9368
M30
