%TF.GenerationSoftware,KiCad,Pcbnew,8.0.4*%
%TF.CreationDate,2025-12-15T13:27:25-05:00*%
%TF.ProjectId,SC Rev B 250413,53432052-6576-4204-9220-323530343133,A*%
%TF.SameCoordinates,Original*%
%TF.FileFunction,Soldermask,Top*%
%TF.FilePolarity,Negative*%
%FSLAX46Y46*%
G04 Gerber Fmt 4.6, Leading zero omitted, Abs format (unit mm)*
G04 Created by KiCad (PCBNEW 8.0.4) date 2025-12-15 13:27:25*
%MOMM*%
%LPD*%
G01*
G04 APERTURE LIST*
G04 Aperture macros list*
%AMRoundRect*
0 Rectangle with rounded corners*
0 $1 Rounding radius*
0 $2 $3 $4 $5 $6 $7 $8 $9 X,Y pos of 4 corners*
0 Add a 4 corners polygon primitive as box body*
4,1,4,$2,$3,$4,$5,$6,$7,$8,$9,$2,$3,0*
0 Add four circle primitives for the rounded corners*
1,1,$1+$1,$2,$3*
1,1,$1+$1,$4,$5*
1,1,$1+$1,$6,$7*
1,1,$1+$1,$8,$9*
0 Add four rect primitives between the rounded corners*
20,1,$1+$1,$2,$3,$4,$5,0*
20,1,$1+$1,$4,$5,$6,$7,0*
20,1,$1+$1,$6,$7,$8,$9,0*
20,1,$1+$1,$8,$9,$2,$3,0*%
%AMHorizOval*
0 Thick line with rounded ends*
0 $1 width*
0 $2 $3 position (X,Y) of the first rounded end (center of the circle)*
0 $4 $5 position (X,Y) of the second rounded end (center of the circle)*
0 Add line between two ends*
20,1,$1,$2,$3,$4,$5,0*
0 Add two circle primitives to create the rounded ends*
1,1,$1,$2,$3*
1,1,$1,$4,$5*%
G04 Aperture macros list end*
%ADD10C,0.000000*%
%ADD11R,1.700000X1.700000*%
%ADD12O,1.700000X1.700000*%
%ADD13R,0.533400X1.879600*%
%ADD14C,1.700000*%
%ADD15RoundRect,0.200000X0.275000X-0.200000X0.275000X0.200000X-0.275000X0.200000X-0.275000X-0.200000X0*%
%ADD16O,1.254000X3.354000*%
%ADD17O,3.154000X1.954000*%
%ADD18RoundRect,0.150000X-0.875000X-0.150000X0.875000X-0.150000X0.875000X0.150000X-0.875000X0.150000X0*%
%ADD19C,3.200000*%
%ADD20RoundRect,0.200000X-0.275000X0.200000X-0.275000X-0.200000X0.275000X-0.200000X0.275000X0.200000X0*%
%ADD21C,3.000000*%
%ADD22RoundRect,0.225000X0.225000X0.250000X-0.225000X0.250000X-0.225000X-0.250000X0.225000X-0.250000X0*%
%ADD23RoundRect,0.225000X-0.250000X0.225000X-0.250000X-0.225000X0.250000X-0.225000X0.250000X0.225000X0*%
%ADD24RoundRect,0.225000X-0.225000X-0.250000X0.225000X-0.250000X0.225000X0.250000X-0.225000X0.250000X0*%
%ADD25R,1.800000X1.800000*%
%ADD26C,1.800000*%
%ADD27RoundRect,0.250000X-0.325000X-0.650000X0.325000X-0.650000X0.325000X0.650000X-0.325000X0.650000X0*%
%ADD28RoundRect,0.140000X0.140000X0.170000X-0.140000X0.170000X-0.140000X-0.170000X0.140000X-0.170000X0*%
%ADD29RoundRect,0.150000X0.512500X0.150000X-0.512500X0.150000X-0.512500X-0.150000X0.512500X-0.150000X0*%
%ADD30RoundRect,0.250000X0.325000X0.650000X-0.325000X0.650000X-0.325000X-0.650000X0.325000X-0.650000X0*%
%ADD31C,2.000000*%
%ADD32RoundRect,0.102000X-0.400000X-0.750000X0.400000X-0.750000X0.400000X0.750000X-0.400000X0.750000X0*%
%ADD33RoundRect,0.102000X-0.700000X-0.950000X0.700000X-0.950000X0.700000X0.950000X-0.700000X0.950000X0*%
%ADD34RoundRect,0.102000X0.900000X-0.700000X0.900000X0.700000X-0.900000X0.700000X-0.900000X-0.700000X0*%
%ADD35RoundRect,0.200000X0.200000X0.275000X-0.200000X0.275000X-0.200000X-0.275000X0.200000X-0.275000X0*%
%ADD36C,2.799000*%
%ADD37RoundRect,0.250000X-0.475000X0.250000X-0.475000X-0.250000X0.475000X-0.250000X0.475000X0.250000X0*%
%ADD38RoundRect,0.250000X-1.100000X0.325000X-1.100000X-0.325000X1.100000X-0.325000X1.100000X0.325000X0*%
%ADD39C,2.251000*%
%ADD40RoundRect,0.102000X1.087500X1.087500X-1.087500X1.087500X-1.087500X-1.087500X1.087500X-1.087500X0*%
%ADD41C,2.379000*%
%ADD42C,2.649000*%
%ADD43RoundRect,0.225000X-0.375000X0.225000X-0.375000X-0.225000X0.375000X-0.225000X0.375000X0.225000X0*%
%ADD44RoundRect,0.112500X-0.112500X0.187500X-0.112500X-0.187500X0.112500X-0.187500X0.112500X0.187500X0*%
%ADD45RoundRect,0.140000X-0.140000X-0.170000X0.140000X-0.170000X0.140000X0.170000X-0.140000X0.170000X0*%
%ADD46RoundRect,0.225000X0.250000X-0.225000X0.250000X0.225000X-0.250000X0.225000X-0.250000X-0.225000X0*%
%ADD47RoundRect,0.225000X0.225000X0.375000X-0.225000X0.375000X-0.225000X-0.375000X0.225000X-0.375000X0*%
%ADD48R,1.460500X0.558800*%
%ADD49O,0.812800X0.254000*%
%ADD50O,0.254000X0.812800*%
%ADD51R,1.651000X2.641600*%
%ADD52RoundRect,0.135000X0.135000X0.185000X-0.135000X0.185000X-0.135000X-0.185000X0.135000X-0.185000X0*%
%ADD53RoundRect,0.140000X0.170000X-0.140000X0.170000X0.140000X-0.170000X0.140000X-0.170000X-0.140000X0*%
%ADD54RoundRect,0.135000X-0.135000X-0.185000X0.135000X-0.185000X0.135000X0.185000X-0.135000X0.185000X0*%
%ADD55R,0.558800X1.295400*%
%ADD56RoundRect,0.200000X-0.200000X-0.275000X0.200000X-0.275000X0.200000X0.275000X-0.200000X0.275000X0*%
%ADD57R,0.863600X3.251200*%
%ADD58R,1.422400X1.422400*%
%ADD59C,1.422400*%
%ADD60R,2.311400X1.497552*%
%ADD61RoundRect,0.198500X-0.508500X-0.198500X0.508500X-0.198500X0.508500X0.198500X-0.508500X0.198500X0*%
%ADD62HorizOval,1.700000X0.000000X0.000000X0.000000X0.000000X0*%
%ADD63R,1.750000X1.100000*%
%ADD64C,3.700000*%
%ADD65C,2.378000*%
%ADD66C,1.520000*%
%ADD67C,1.904000*%
%ADD68C,2.352600*%
%ADD69RoundRect,0.250000X-1.025000X0.787500X-1.025000X-0.787500X1.025000X-0.787500X1.025000X0.787500X0*%
%ADD70C,1.779000*%
%ADD71R,0.431800X1.003300*%
%ADD72RoundRect,0.150000X-0.150000X0.512500X-0.150000X-0.512500X0.150000X-0.512500X0.150000X0.512500X0*%
%ADD73RoundRect,0.198500X0.508500X0.198500X-0.508500X0.198500X-0.508500X-0.198500X0.508500X-0.198500X0*%
%ADD74RoundRect,0.150000X0.200000X-0.150000X0.200000X0.150000X-0.200000X0.150000X-0.200000X-0.150000X0*%
%ADD75RoundRect,0.112500X0.112500X-0.187500X0.112500X0.187500X-0.112500X0.187500X-0.112500X-0.187500X0*%
%ADD76C,2.780000*%
%ADD77R,1.498600X3.810000*%
%ADD78RoundRect,0.150000X-0.587500X-0.150000X0.587500X-0.150000X0.587500X0.150000X-0.587500X0.150000X0*%
%ADD79RoundRect,0.150000X0.150000X-0.587500X0.150000X0.587500X-0.150000X0.587500X-0.150000X-0.587500X0*%
%ADD80R,0.599999X0.240000*%
%ADD81R,0.240000X0.599999*%
%ADD82R,0.240000X3.400001*%
%ADD83C,0.297000*%
%ADD84RoundRect,0.140000X-0.170000X0.140000X-0.170000X-0.140000X0.170000X-0.140000X0.170000X0.140000X0*%
%ADD85C,2.400000*%
%ADD86R,1.168400X2.997200*%
%ADD87R,1.920000X6.500000*%
G04 APERTURE END LIST*
D10*
%TO.C,U5*%
G36*
X115897000Y-137749300D02*
G01*
X114246000Y-137749300D01*
X114246000Y-135107700D01*
X115897000Y-135107700D01*
X115897000Y-137749300D01*
G37*
%TO.C,U3*%
G36*
X115871000Y-123007300D02*
G01*
X114220000Y-123007300D01*
X114220000Y-120365700D01*
X115871000Y-120365700D01*
X115871000Y-123007300D01*
G37*
%TO.C,U2*%
G36*
X51174000Y-97266001D02*
G01*
X51174000Y-97741001D01*
X51219001Y-97741001D01*
X51219001Y-100090999D01*
X51174000Y-100090999D01*
X51174000Y-100565999D01*
X51124000Y-100615999D01*
X50984000Y-100615999D01*
X50934000Y-100565999D01*
X50934000Y-100090999D01*
X50888999Y-100090999D01*
X50888999Y-97741001D01*
X50934000Y-97741001D01*
X50934000Y-97266001D01*
X50984000Y-97216001D01*
X51124000Y-97216001D01*
X51174000Y-97266001D01*
G37*
%TD*%
D11*
%TO.C,J4*%
X120142000Y-68849000D03*
D12*
X120142000Y-71389000D03*
X120142000Y-73929000D03*
%TD*%
D11*
%TO.C,J17*%
X49017000Y-84328000D03*
D12*
X51557000Y-84328000D03*
%TD*%
D13*
%TO.C,U6*%
X84293501Y-136753600D03*
X85563501Y-136753600D03*
X86833501Y-136753600D03*
X88103501Y-136753600D03*
X89373501Y-136753600D03*
X90643501Y-136753600D03*
X91913501Y-136753600D03*
X93183501Y-136753600D03*
X93183501Y-127279400D03*
X91913501Y-127279400D03*
X90643501Y-127279400D03*
X89373501Y-127279400D03*
X88103501Y-127279400D03*
X86833501Y-127279400D03*
X85563501Y-127279400D03*
X84293501Y-127279400D03*
%TD*%
D11*
%TO.C,J51*%
X119627652Y-146558002D03*
D14*
X117087652Y-146558002D03*
%TD*%
D15*
%TO.C,R16*%
X77707500Y-120670500D03*
X77707500Y-119020500D03*
%TD*%
D14*
%TO.C,J1*%
X47792000Y-71755000D03*
X52792000Y-71755000D03*
D16*
X53192000Y-78905000D03*
X47392000Y-78905000D03*
X52792000Y-75255000D03*
X47792000Y-75255000D03*
D17*
X50292000Y-69755000D03*
%TD*%
D18*
%TO.C,U9*%
X77646000Y-148336000D03*
X77646000Y-149606000D03*
X77646000Y-150876000D03*
X77646000Y-152146000D03*
X77646000Y-153416000D03*
X77646000Y-154686000D03*
X77646000Y-155956000D03*
X77646000Y-157226000D03*
X86946000Y-157226000D03*
X86946000Y-155956000D03*
X86946000Y-154686000D03*
X86946000Y-153416000D03*
X86946000Y-152146000D03*
X86946000Y-150876000D03*
X86946000Y-149606000D03*
X86946000Y-148336000D03*
%TD*%
D19*
%TO.C,H2*%
X140335000Y-69469000D03*
%TD*%
D20*
%TO.C,R2*%
X39116000Y-93663000D03*
X39116000Y-95313000D03*
%TD*%
D21*
%TO.C,FID1*%
X30480000Y-147320000D03*
%TD*%
D22*
%TO.C,C34*%
X118095500Y-118386500D03*
X116545500Y-118386500D03*
%TD*%
D23*
%TO.C,C44*%
X112141000Y-123304000D03*
X112141000Y-124854000D03*
%TD*%
D24*
%TO.C,C65*%
X111366000Y-156845000D03*
X112916000Y-156845000D03*
%TD*%
D25*
%TO.C,D4*%
X138430000Y-157221000D03*
D26*
X140970000Y-157221000D03*
%TD*%
D27*
%TO.C,C25*%
X47279000Y-106986000D03*
X50229000Y-106986000D03*
%TD*%
D28*
%TO.C,C9*%
X46172000Y-97586000D03*
X45212000Y-97586000D03*
%TD*%
D11*
%TO.C,J3*%
X116332000Y-68849000D03*
D12*
X116332000Y-71389000D03*
X116332000Y-73929000D03*
%TD*%
D29*
%TO.C,U7*%
X90384001Y-141178500D03*
X90384001Y-140228500D03*
X90384001Y-139278500D03*
X88109001Y-139278500D03*
X88109001Y-141178500D03*
%TD*%
D30*
%TO.C,C28*%
X54829000Y-109286000D03*
X51879000Y-109286000D03*
%TD*%
D11*
%TO.C,JS5*%
X101224000Y-123317000D03*
D12*
X98684000Y-123317000D03*
%TD*%
D31*
%TO.C,J39*%
X125730000Y-97536000D03*
%TD*%
%TO.C,J36*%
X115824000Y-97536000D03*
%TD*%
D32*
%TO.C,J7*%
X127600000Y-69290000D03*
X128700000Y-69690000D03*
X129800000Y-69290000D03*
X130900000Y-69090000D03*
X132000000Y-69290000D03*
X133100000Y-69090000D03*
X134200000Y-69290000D03*
X135300000Y-69290000D03*
D33*
X136090000Y-66440000D03*
X122940000Y-65440000D03*
D34*
X134490000Y-79590000D03*
X128790000Y-79590000D03*
%TD*%
D35*
%TO.C,R20*%
X123253000Y-133350000D03*
X121603000Y-133350000D03*
%TD*%
D36*
%TO.C,J8*%
X35814000Y-78153500D03*
X32512000Y-72565500D03*
X29210000Y-78153500D03*
%TD*%
D37*
%TO.C,C45*%
X118620500Y-121436500D03*
X118620500Y-123336500D03*
%TD*%
D38*
%TO.C,C58*%
X121232500Y-136207500D03*
X121232500Y-139157500D03*
%TD*%
D39*
%TO.C,J18*%
X63246000Y-88696800D03*
X59283600Y-88696800D03*
%TD*%
D40*
%TO.C,J11*%
X63417000Y-76890000D03*
D41*
X68417000Y-76890000D03*
X73417000Y-76890000D03*
X65927000Y-79380000D03*
X70907000Y-79380000D03*
X60927000Y-79380000D03*
X75907000Y-79380000D03*
X68417000Y-81890000D03*
D42*
X70907000Y-66880000D03*
X65927000Y-66880000D03*
%TD*%
D43*
%TO.C,D2*%
X81372501Y-130366500D03*
X81372501Y-133666500D03*
%TD*%
D38*
%TO.C,C46*%
X121220500Y-121461500D03*
X121220500Y-124411500D03*
%TD*%
D24*
%TO.C,C4*%
X39103000Y-91948000D03*
X40653000Y-91948000D03*
%TD*%
D20*
%TO.C,R3*%
X40640000Y-93663000D03*
X40640000Y-95313000D03*
%TD*%
D44*
%TO.C,D11*%
X85877400Y-81186600D03*
X85877400Y-83286600D03*
%TD*%
%TO.C,D12*%
X83845400Y-81203400D03*
X83845400Y-83303400D03*
%TD*%
D37*
%TO.C,C43*%
X110420500Y-121986500D03*
X110420500Y-123886500D03*
%TD*%
D45*
%TO.C,C11*%
X57774000Y-99286000D03*
X58734000Y-99286000D03*
%TD*%
D46*
%TO.C,C37*%
X84293501Y-124155500D03*
X84293501Y-122605500D03*
%TD*%
D47*
%TO.C,D1*%
X133425200Y-123901200D03*
X130125200Y-123901200D03*
%TD*%
D24*
%TO.C,C6*%
X48329000Y-96186000D03*
X49879000Y-96186000D03*
%TD*%
D48*
%TO.C,Q2*%
X97275650Y-119062500D03*
X97275650Y-117792500D03*
X97275650Y-116522500D03*
X97275650Y-115252500D03*
X91827350Y-115252500D03*
X91827350Y-116522500D03*
X91827350Y-117792500D03*
X91827350Y-119062500D03*
%TD*%
D11*
%TO.C,JS3*%
X105664000Y-115951000D03*
D12*
X103124000Y-115951000D03*
%TD*%
D49*
%TO.C,U5*%
X113674500Y-135178500D03*
X113674500Y-135678499D03*
X113674500Y-136178500D03*
X113674500Y-136678500D03*
X113674500Y-137178501D03*
X113674500Y-137678500D03*
D50*
X114321499Y-138333500D03*
X114821500Y-138333500D03*
X115321500Y-138333500D03*
X115821501Y-138333500D03*
D49*
X116468500Y-137678500D03*
X116468500Y-137178501D03*
X116468500Y-136678500D03*
X116468500Y-136178500D03*
X116468500Y-135678499D03*
X116468500Y-135178500D03*
D50*
X115821501Y-134523500D03*
X115321500Y-134523500D03*
X114821500Y-134523500D03*
X114321499Y-134523500D03*
D51*
X115071500Y-136428500D03*
%TD*%
D30*
%TO.C,C23*%
X54829000Y-104686000D03*
X51879000Y-104686000D03*
%TD*%
D11*
%TO.C,J43*%
X128016000Y-120889000D03*
D12*
X128016000Y-118349000D03*
X128016000Y-115809000D03*
%TD*%
D15*
%TO.C,R1*%
X37817999Y-88258150D03*
X37817999Y-86608150D03*
%TD*%
D23*
%TO.C,C52*%
X112191800Y-138290000D03*
X112191800Y-139840000D03*
%TD*%
D19*
%TO.C,H4*%
X154940000Y-81661000D03*
%TD*%
D11*
%TO.C,J12*%
X92970350Y-89916002D03*
D14*
X92970350Y-92456002D03*
X95510350Y-89916002D03*
X95510350Y-92456002D03*
X98050350Y-89916002D03*
X98050350Y-92456002D03*
%TD*%
D52*
%TO.C,R4*%
X59488800Y-96875600D03*
X58468800Y-96875600D03*
%TD*%
D38*
%TO.C,C38*%
X124445500Y-121461500D03*
X124445500Y-124411500D03*
%TD*%
D11*
%TO.C,JS1*%
X40386000Y-74300000D03*
D12*
X40386000Y-71760000D03*
%TD*%
D53*
%TO.C,C15*%
X54604000Y-101316000D03*
X54604000Y-100356000D03*
%TD*%
D23*
%TO.C,C31*%
X62004000Y-110061000D03*
X62004000Y-111611000D03*
%TD*%
D54*
%TO.C,R5*%
X57744000Y-98336000D03*
X58764000Y-98336000D03*
%TD*%
D24*
%TO.C,C2*%
X43167000Y-88138000D03*
X44717000Y-88138000D03*
%TD*%
D31*
%TO.C,J20*%
X74752200Y-82321400D03*
%TD*%
D22*
%TO.C,C36*%
X73656500Y-124620700D03*
X72106500Y-124620700D03*
%TD*%
D11*
%TO.C,J31*%
X149358350Y-99033501D03*
D14*
X149358350Y-101573501D03*
X151898350Y-99033501D03*
X151898350Y-101573501D03*
X154438350Y-99033501D03*
X154438350Y-101573501D03*
X156978350Y-99033501D03*
X156978350Y-101573501D03*
%TD*%
D11*
%TO.C,J50*%
X96012000Y-150495000D03*
D12*
X93472000Y-150495000D03*
%TD*%
D31*
%TO.C,J6*%
X109220000Y-75184000D03*
%TD*%
%TO.C,J30*%
X94284800Y-80848200D03*
%TD*%
D55*
%TO.C,U8*%
X106364999Y-150507700D03*
X108265001Y-150507700D03*
X107315000Y-148450300D03*
%TD*%
D22*
%TO.C,C49*%
X118132500Y-133126500D03*
X116582500Y-133126500D03*
%TD*%
D56*
%TO.C,R26*%
X88075000Y-142748000D03*
X89725000Y-142748000D03*
%TD*%
D44*
%TO.C,D10*%
X132486400Y-106569800D03*
X132486400Y-108669800D03*
%TD*%
D57*
%TO.C,L2*%
X114051300Y-115236500D03*
X116489700Y-115236500D03*
%TD*%
D22*
%TO.C,C5*%
X53779000Y-96186000D03*
X52229000Y-96186000D03*
%TD*%
D58*
%TO.C,C18*%
X100076000Y-109023150D03*
D59*
X100076000Y-103511350D03*
%TD*%
D31*
%TO.C,J35*%
X112522000Y-97536000D03*
%TD*%
D11*
%TO.C,J22*%
X70866000Y-88899999D03*
D14*
X73406000Y-88899999D03*
X75946000Y-88899999D03*
X78486000Y-88899999D03*
X81026000Y-88899999D03*
X83566000Y-88899999D03*
%TD*%
D60*
%TO.C,C40*%
X81263500Y-122206676D03*
X81263500Y-124722324D03*
%TD*%
D61*
%TO.C,U12*%
X89285600Y-82326400D03*
X89285600Y-83276400D03*
X89285600Y-84226400D03*
X91795600Y-84226400D03*
X91795600Y-82326400D03*
%TD*%
D31*
%TO.C,J24*%
X140462000Y-87884000D03*
%TD*%
D22*
%TO.C,C50*%
X85576501Y-138684000D03*
X84026501Y-138684000D03*
%TD*%
D21*
%TO.C,FID2*%
X80899000Y-80949800D03*
%TD*%
D11*
%TO.C,J26*%
X140413800Y-94201900D03*
D12*
X140413800Y-91661900D03*
X137873800Y-94201900D03*
X137873800Y-91661900D03*
X135333800Y-94201900D03*
X135333800Y-91661900D03*
X132793800Y-94201900D03*
X132793800Y-91661900D03*
X130253800Y-94201900D03*
X130253800Y-91661900D03*
X127713800Y-94201900D03*
X127713800Y-91661900D03*
X125173800Y-94201900D03*
X125173800Y-91661900D03*
X122633800Y-94201900D03*
X122633800Y-91661900D03*
D62*
X120093800Y-94201900D03*
X120093800Y-91661900D03*
D12*
X117553800Y-94201900D03*
X117553800Y-91661900D03*
X115013800Y-94201900D03*
X115013800Y-91661900D03*
X112473800Y-94201900D03*
X112473800Y-91661900D03*
%TD*%
D54*
%TO.C,R12*%
X56444000Y-103036000D03*
X57464000Y-103036000D03*
%TD*%
D23*
%TO.C,C64*%
X89408000Y-150863000D03*
X89408000Y-152413000D03*
%TD*%
D63*
%TO.C,R13*%
X59229000Y-108396000D03*
X59229000Y-106676000D03*
X61979000Y-106676000D03*
X61979000Y-108396000D03*
%TD*%
D21*
%TO.C,FID3*%
X165100000Y-137160000D03*
%TD*%
D63*
%TO.C,R9*%
X41253000Y-97438000D03*
X41253000Y-99158000D03*
X38503000Y-99158000D03*
X38503000Y-97438000D03*
%TD*%
D44*
%TO.C,D15*%
X77216000Y-94564200D03*
X77216000Y-96664200D03*
%TD*%
D64*
%TO.C,H7*%
X34417000Y-156591000D03*
%TD*%
D11*
%TO.C,J28*%
X83058000Y-98176000D03*
D12*
X83058000Y-95636000D03*
%TD*%
D37*
%TO.C,C55*%
X110448700Y-136748500D03*
X110448700Y-138648500D03*
%TD*%
D25*
%TO.C,D5*%
X138430000Y-159766000D03*
D26*
X140970000Y-159766000D03*
%TD*%
D11*
%TO.C,J9*%
X95116651Y-77496500D03*
D14*
X95116651Y-74956500D03*
X92576651Y-77496500D03*
X92576651Y-74956500D03*
X90036651Y-77496500D03*
X90036651Y-74956500D03*
X87496651Y-77496500D03*
X87496651Y-74956500D03*
X84956651Y-77496500D03*
X84956651Y-74956500D03*
X82416651Y-77496500D03*
X82416651Y-74956500D03*
%TD*%
D63*
%TO.C,R18*%
X91383501Y-122393500D03*
X91383501Y-124113500D03*
X88633501Y-124113500D03*
X88633501Y-122393500D03*
%TD*%
D45*
%TO.C,C12*%
X57774000Y-100336000D03*
X58734000Y-100336000D03*
%TD*%
D56*
%TO.C,R19*%
X75612500Y-129052500D03*
X77262500Y-129052500D03*
%TD*%
D65*
%TO.C,JP1*%
X68783200Y-101600000D03*
X64820800Y-101600000D03*
%TD*%
D11*
%TO.C,J29*%
X87376000Y-98176000D03*
D12*
X87376000Y-95636000D03*
%TD*%
D11*
%TO.C,J34*%
X105288000Y-98044000D03*
D12*
X107828000Y-98044000D03*
%TD*%
D66*
%TO.C,BT1*%
X56685910Y-138799500D03*
X62865000Y-149502000D03*
X69044090Y-138799500D03*
D67*
X62865000Y-153167000D03*
X62865000Y-136507000D03*
%TD*%
D68*
%TO.C,J41*%
X137300899Y-100469899D03*
X141260901Y-100469899D03*
%TD*%
D63*
%TO.C,R14*%
X75570500Y-116895500D03*
X75570500Y-115175500D03*
X78320500Y-115175500D03*
X78320500Y-116895500D03*
%TD*%
D22*
%TO.C,C53*%
X86119000Y-141859000D03*
X84569000Y-141859000D03*
%TD*%
D57*
%TO.C,L3*%
X114088300Y-129982500D03*
X116526700Y-129982500D03*
%TD*%
D11*
%TO.C,JS4*%
X131826000Y-118369000D03*
D12*
X131826000Y-115829000D03*
%TD*%
D11*
%TO.C,J47*%
X100589000Y-139954000D03*
D12*
X98049000Y-139954000D03*
%TD*%
D19*
%TO.C,H6*%
X154940000Y-147701000D03*
%TD*%
D24*
%TO.C,C30*%
X88887000Y-113157000D03*
X90437000Y-113157000D03*
%TD*%
D69*
%TO.C,C47*%
X96993501Y-129539000D03*
X96993501Y-135764000D03*
%TD*%
D46*
%TO.C,C63*%
X75184000Y-151143000D03*
X75184000Y-149593000D03*
%TD*%
D45*
%TO.C,C14*%
X49624000Y-101586000D03*
X50584000Y-101586000D03*
%TD*%
D35*
%TO.C,R27*%
X100647000Y-146812000D03*
X98997000Y-146812000D03*
%TD*%
D28*
%TO.C,C7*%
X46172000Y-96586000D03*
X45212000Y-96586000D03*
%TD*%
D31*
%TO.C,J5*%
X109220000Y-71247000D03*
%TD*%
D35*
%TO.C,R31*%
X80530200Y-96393000D03*
X78880200Y-96393000D03*
%TD*%
D24*
%TO.C,C8*%
X55329000Y-96836000D03*
X56879000Y-96836000D03*
%TD*%
D35*
%TO.C,R30*%
X100647000Y-150495000D03*
X98997000Y-150495000D03*
%TD*%
D11*
%TO.C,J2*%
X112522000Y-68834000D03*
D12*
X112522000Y-71374000D03*
X112522000Y-73914000D03*
%TD*%
D35*
%TO.C,R22*%
X80555600Y-94742000D03*
X78905600Y-94742000D03*
%TD*%
D54*
%TO.C,R11*%
X56444000Y-101986000D03*
X57464000Y-101986000D03*
%TD*%
D22*
%TO.C,C22*%
X53329000Y-102786000D03*
X51779000Y-102786000D03*
%TD*%
D28*
%TO.C,C16*%
X52484000Y-101586000D03*
X51524000Y-101586000D03*
%TD*%
D31*
%TO.C,J14*%
X116459000Y-83185000D03*
%TD*%
D28*
%TO.C,C10*%
X46172000Y-100336000D03*
X45212000Y-100336000D03*
%TD*%
D25*
%TO.C,D6*%
X143637000Y-159761000D03*
D26*
X146177000Y-159761000D03*
%TD*%
D24*
%TO.C,C33*%
X112395500Y-118386500D03*
X113945500Y-118386500D03*
%TD*%
D37*
%TO.C,C57*%
X118632500Y-136182500D03*
X118632500Y-138082500D03*
%TD*%
D15*
%TO.C,R15*%
X76183500Y-120670500D03*
X76183500Y-119020500D03*
%TD*%
D11*
%TO.C,JS2*%
X132969000Y-103383000D03*
D12*
X132969000Y-100843000D03*
%TD*%
D70*
%TO.C,BZ1*%
X39878000Y-126064000D03*
X39878000Y-136064000D03*
%TD*%
D56*
%TO.C,R29*%
X110554000Y-150495000D03*
X112204000Y-150495000D03*
%TD*%
D71*
%TO.C,U1*%
X39538001Y-89719150D03*
X40187999Y-89719150D03*
X40838001Y-89719150D03*
X41487999Y-89719150D03*
X41487999Y-87064850D03*
X40838001Y-87064850D03*
X40187999Y-87064850D03*
X39538001Y-87064850D03*
%TD*%
D19*
%TO.C,H1*%
X102362000Y-69469000D03*
%TD*%
D22*
%TO.C,C51*%
X86119000Y-140208000D03*
X84569000Y-140208000D03*
%TD*%
D72*
%TO.C,U10*%
X112329000Y-152659500D03*
X111379000Y-152659500D03*
X110429000Y-152659500D03*
X110429000Y-154934500D03*
X111379000Y-154934500D03*
X112329000Y-154934500D03*
%TD*%
D71*
%TO.C,U4*%
X77285499Y-124614350D03*
X76635501Y-124614350D03*
X75985499Y-124614350D03*
X75335501Y-124614350D03*
X75335501Y-127268650D03*
X75985499Y-127268650D03*
X76635501Y-127268650D03*
X77285499Y-127268650D03*
%TD*%
D35*
%TO.C,R8*%
X91757000Y-98298000D03*
X90107000Y-98298000D03*
%TD*%
D44*
%TO.C,D9*%
X44831000Y-81804800D03*
X44831000Y-83904800D03*
%TD*%
D73*
%TO.C,U14*%
X155016200Y-96418400D03*
X155016200Y-95468400D03*
X155016200Y-94518400D03*
X152506200Y-94518400D03*
X152506200Y-96418400D03*
%TD*%
D31*
%TO.C,J40*%
X129032000Y-97536000D03*
%TD*%
D39*
%TO.C,J33*%
X78291700Y-105735300D03*
X74329300Y-105735300D03*
%TD*%
D24*
%TO.C,C13*%
X48779000Y-102786000D03*
X50329000Y-102786000D03*
%TD*%
D74*
%TO.C,D8*%
X50419000Y-140335000D03*
X50419000Y-141735000D03*
%TD*%
D38*
%TO.C,C59*%
X124432500Y-136207500D03*
X124432500Y-139157500D03*
%TD*%
D31*
%TO.C,J21*%
X77901800Y-82321400D03*
%TD*%
%TO.C,J23*%
X134620000Y-87884000D03*
%TD*%
D22*
%TO.C,C35*%
X77720500Y-122385500D03*
X76170500Y-122385500D03*
%TD*%
D75*
%TO.C,D13*%
X99771200Y-84260400D03*
X99771200Y-82160400D03*
%TD*%
D76*
%TO.C,F1*%
X34212000Y-83686000D03*
X30812000Y-83686000D03*
X34212000Y-93606000D03*
X30812000Y-93606000D03*
%TD*%
D11*
%TO.C,JS6*%
X125967500Y-129794000D03*
D12*
X125967500Y-132334000D03*
%TD*%
D24*
%TO.C,C3*%
X43167000Y-89687400D03*
X44717000Y-89687400D03*
%TD*%
D49*
%TO.C,U3*%
X113648500Y-120436500D03*
X113648500Y-120936499D03*
X113648500Y-121436500D03*
X113648500Y-121936500D03*
X113648500Y-122436501D03*
X113648500Y-122936500D03*
D50*
X114295499Y-123591500D03*
X114795500Y-123591500D03*
X115295500Y-123591500D03*
X115795501Y-123591500D03*
D49*
X116442500Y-122936500D03*
X116442500Y-122436501D03*
X116442500Y-121936500D03*
X116442500Y-121436500D03*
X116442500Y-120936499D03*
X116442500Y-120436500D03*
D50*
X115795501Y-119781500D03*
X115295500Y-119781500D03*
X114795500Y-119781500D03*
X114295499Y-119781500D03*
D51*
X115045500Y-121686500D03*
%TD*%
D58*
%TO.C,C17*%
X87376000Y-109023150D03*
D59*
X87376000Y-103511350D03*
%TD*%
D30*
%TO.C,C26*%
X54829000Y-106986000D03*
X51879000Y-106986000D03*
%TD*%
D64*
%TO.C,H8*%
X126365000Y-156591000D03*
%TD*%
D11*
%TO.C,J48*%
X96017000Y-146812000D03*
D12*
X93477000Y-146812000D03*
%TD*%
D31*
%TO.C,J15*%
X120269000Y-83185000D03*
%TD*%
D75*
%TO.C,D16*%
X97713800Y-84285800D03*
X97713800Y-82185800D03*
%TD*%
D73*
%TO.C,U15*%
X136862800Y-139643100D03*
X136862800Y-138693100D03*
X136862800Y-137743100D03*
X134352800Y-137743100D03*
X134352800Y-139643100D03*
%TD*%
D38*
%TO.C,C54*%
X105775100Y-135664700D03*
X105775100Y-138614700D03*
%TD*%
D24*
%TO.C,C48*%
X112432500Y-133132500D03*
X113982500Y-133132500D03*
%TD*%
D25*
%TO.C,D7*%
X138410000Y-162342000D03*
D26*
X140950000Y-162342000D03*
%TD*%
D77*
%TO.C,C24*%
X40849000Y-106229200D03*
X40849000Y-113442800D03*
%TD*%
D38*
%TO.C,C41*%
X105745500Y-120936500D03*
X105745500Y-123886500D03*
%TD*%
D78*
%TO.C,Q3*%
X135637300Y-130920700D03*
X135637300Y-132820700D03*
X137512300Y-131870700D03*
%TD*%
D35*
%TO.C,R24*%
X140918200Y-134747000D03*
X139268200Y-134747000D03*
%TD*%
D56*
%TO.C,R7*%
X78804000Y-98247200D03*
X80454000Y-98247200D03*
%TD*%
D11*
%TO.C,J52*%
X49017000Y-117856000D03*
D12*
X51557000Y-117856000D03*
%TD*%
D65*
%TO.C,JP2*%
X31496000Y-99923600D03*
X31496000Y-103886000D03*
%TD*%
D31*
%TO.C,J42*%
X164719000Y-105791000D03*
%TD*%
D22*
%TO.C,C39*%
X73656500Y-126195500D03*
X72106500Y-126195500D03*
%TD*%
D46*
%TO.C,C62*%
X104267000Y-150521000D03*
X104267000Y-148971000D03*
%TD*%
D44*
%TO.C,D14*%
X75209400Y-94597800D03*
X75209400Y-96697800D03*
%TD*%
D52*
%TO.C,R10*%
X46202000Y-101336000D03*
X45182000Y-101336000D03*
%TD*%
D58*
%TO.C,C20*%
X125476000Y-109023150D03*
D59*
X125476000Y-103511350D03*
%TD*%
D23*
%TO.C,C1*%
X133146800Y-82193800D03*
X133146800Y-83743800D03*
%TD*%
D31*
%TO.C,J19*%
X71551800Y-82346800D03*
%TD*%
D79*
%TO.C,Q6*%
X49469000Y-146020000D03*
X51369000Y-146020000D03*
X50419000Y-144145000D03*
%TD*%
D80*
%TO.C,U2*%
X48654000Y-98165999D03*
X48654000Y-98666000D03*
X48654000Y-99166000D03*
X48654000Y-99666001D03*
D81*
X49053999Y-100316000D03*
X49554000Y-100316000D03*
D82*
X50053999Y-98916000D03*
X50554001Y-98916000D03*
D83*
X51054000Y-98916000D03*
D82*
X51553999Y-98916000D03*
X52054001Y-98916000D03*
D81*
X52554000Y-100316000D03*
X53054001Y-100316000D03*
D80*
X53454000Y-99666001D03*
X53454000Y-99166000D03*
X53454000Y-98666000D03*
X53454000Y-98165999D03*
D81*
X53054001Y-97516000D03*
X52554000Y-97516000D03*
X49554000Y-97516000D03*
X49053999Y-97516000D03*
%TD*%
D31*
%TO.C,J13*%
X112649000Y-83185000D03*
%TD*%
%TO.C,J16*%
X123952000Y-83185000D03*
%TD*%
D61*
%TO.C,U11*%
X100288900Y-75185000D03*
X100288900Y-76135000D03*
X100288900Y-77085000D03*
X102798900Y-77085000D03*
X102798900Y-75185000D03*
%TD*%
D54*
%TO.C,R6*%
X55844000Y-99286000D03*
X56864000Y-99286000D03*
%TD*%
D11*
%TO.C,J27*%
X72324200Y-95478600D03*
D12*
X69784200Y-95478600D03*
X67244200Y-95478600D03*
%TD*%
D19*
%TO.C,H3*%
X40640000Y-81661000D03*
%TD*%
D84*
%TO.C,C29*%
X58420000Y-110264000D03*
X58420000Y-111224000D03*
%TD*%
D85*
%TO.C,WL1*%
X164755000Y-93106900D03*
X164755000Y-68106900D03*
X108255000Y-93106900D03*
X108255000Y-68106900D03*
%TD*%
D78*
%TO.C,Q4*%
X139612900Y-131003000D03*
X139612900Y-132903000D03*
X141487900Y-131953000D03*
%TD*%
D84*
%TO.C,C27*%
X46253400Y-110314800D03*
X46253400Y-111274800D03*
%TD*%
D11*
%TO.C,J45*%
X129794000Y-126868000D03*
D12*
X129794000Y-129408000D03*
%TD*%
D37*
%TO.C,C56*%
X108365900Y-135732500D03*
X108365900Y-137632500D03*
%TD*%
D48*
%TO.C,Q1*%
X88258650Y-119062500D03*
X88258650Y-117792500D03*
X88258650Y-116522500D03*
X88258650Y-115252500D03*
X82810350Y-115252500D03*
X82810350Y-116522500D03*
X82810350Y-117792500D03*
X82810350Y-119062500D03*
%TD*%
D86*
%TO.C,C32*%
X67564000Y-107927700D03*
X67564000Y-113744300D03*
%TD*%
D78*
%TO.C,Q5*%
X144540500Y-130774400D03*
X144540500Y-132674400D03*
X146415500Y-131724400D03*
%TD*%
D46*
%TO.C,C61*%
X112141000Y-148730000D03*
X112141000Y-147180000D03*
%TD*%
D11*
%TO.C,J32*%
X164592000Y-99055000D03*
D12*
X164592000Y-101595000D03*
%TD*%
D31*
%TO.C,J38*%
X122428000Y-97536000D03*
%TD*%
D25*
%TO.C,D3*%
X133223000Y-159761000D03*
D26*
X135763000Y-159761000D03*
%TD*%
D37*
%TO.C,C42*%
X108345500Y-120986500D03*
X108345500Y-122886500D03*
%TD*%
D15*
%TO.C,R28*%
X49530000Y-149796000D03*
X49530000Y-148146000D03*
%TD*%
D31*
%TO.C,J37*%
X119126000Y-97536000D03*
%TD*%
D15*
%TO.C,R17*%
X121220500Y-119961500D03*
X121220500Y-118311500D03*
%TD*%
D31*
%TO.C,J10*%
X106553000Y-77851000D03*
%TD*%
D73*
%TO.C,U13*%
X130602200Y-83881000D03*
X130602200Y-82931000D03*
X130602200Y-81981000D03*
X128092200Y-81981000D03*
X128092200Y-83881000D03*
%TD*%
D46*
%TO.C,C60*%
X110617000Y-148730000D03*
X110617000Y-147180000D03*
%TD*%
D35*
%TO.C,R25*%
X145591800Y-134518400D03*
X143941800Y-134518400D03*
%TD*%
D87*
%TO.C,L1*%
X48644000Y-91186000D03*
X53464000Y-91186000D03*
%TD*%
D27*
%TO.C,C21*%
X47279000Y-104686000D03*
X50229000Y-104686000D03*
%TD*%
D31*
%TO.C,J46*%
X122428000Y-130937000D03*
%TD*%
D11*
%TO.C,J49*%
X143249649Y-147066000D03*
D14*
X140709649Y-147066000D03*
X138169649Y-147066000D03*
X135629649Y-147066000D03*
%TD*%
D11*
%TO.C,JP3*%
X129794000Y-135641000D03*
D12*
X129794000Y-133101000D03*
%TD*%
D19*
%TO.C,H5*%
X40640000Y-147701000D03*
%TD*%
D31*
%TO.C,J44*%
X122428000Y-115697000D03*
%TD*%
D11*
%TO.C,J25*%
X130248400Y-89127300D03*
D12*
X130248400Y-86587300D03*
X127708400Y-89127300D03*
X127708400Y-86587300D03*
X125168400Y-89127300D03*
X125168400Y-86587300D03*
X122628400Y-89127300D03*
X122628400Y-86587300D03*
X120088400Y-89127300D03*
X120088400Y-86587300D03*
X117548400Y-89127300D03*
X117548400Y-86587300D03*
X115008400Y-89127300D03*
X115008400Y-86587300D03*
X112468400Y-89127300D03*
X112468400Y-86587300D03*
%TD*%
D58*
%TO.C,C19*%
X112776000Y-109023150D03*
D59*
X112776000Y-103511350D03*
%TD*%
D15*
%TO.C,R21*%
X92421501Y-140926500D03*
X92421501Y-139276500D03*
%TD*%
D35*
%TO.C,R23*%
X136397000Y-134664700D03*
X134747000Y-134664700D03*
%TD*%
M02*
