M48
; DRILL file {KiCad 8.0.4} date 2025-12-15T11:52:50-0500
; FORMAT={-:-/ absolute / inch / decimal}
; #@! TF.CreationDate,2025-12-15T11:52:50-05:00
; #@! TF.GenerationSoftware,Kicad,Pcbnew,8.0.4
; #@! TF.FileFunction,Plated,1,4,PTH
FMAT,2
INCH
; #@! TA.AperFunction,Plated,PTH,ViaDrill
T1C0.0157
; #@! TA.AperFunction,Plated,PTH,ComponentDrill
T2C0.0236
; #@! TA.AperFunction,Plated,PTH,ComponentDrill
T3C0.0354
; #@! TA.AperFunction,Plated,PTH,ComponentDrill
T4C0.0360
; #@! TA.AperFunction,Plated,PTH,ComponentDrill
T5C0.0394
; #@! TA.AperFunction,Plated,PTH,ComponentDrill
T6C0.0413
; #@! TA.AperFunction,Plated,PTH,ComponentDrill
T7C0.0445
; #@! TA.AperFunction,Plated,PTH,ComponentDrill
T8C0.0571
; #@! TA.AperFunction,Plated,PTH,ComponentDrill
T9C0.0642
; #@! TA.AperFunction,Plated,PTH,ComponentDrill
T10C0.0650
; #@! TA.AperFunction,Plated,PTH,ComponentDrill
T11C0.0681
; #@! TA.AperFunction,Plated,PTH,ComponentDrill
T12C0.0690
; #@! TA.AperFunction,Plated,PTH,ComponentDrill
T13C0.0700
; #@! TA.AperFunction,Plated,PTH,ComponentDrill
T14C0.0701
%
G90
G05
T1
X1.49Y-4.525
X1.54Y-4.525
X1.6078Y-3.3828
X1.615Y-3.95
X1.615Y-3.985
X1.6278Y-3.5772
X1.65Y-3.385
X1.65Y-3.95
X1.65Y-3.985
X1.67Y-4.525
X1.685Y-3.95
X1.685Y-3.985
X1.72Y-3.95
X1.72Y-3.985
X1.72Y-4.525
X1.76Y-3.58
X1.77Y-4.525
X1.78Y-3.88
X1.78Y-3.91
X1.82Y-4.425
X1.82Y-4.475
X1.82Y-4.525
X1.83Y-3.354
X1.8403Y-3.9094
X1.8565Y-3.8735
X1.8589Y-3.8342
X1.87Y-4.425
X1.87Y-4.475
X1.8741Y-3.9315
X1.92Y-4.425
X1.92Y-4.475
X1.97Y-4.425
X1.97Y-4.475
X2.01Y-3.765
X2.01Y-3.795
X2.01Y-3.98
X2.01Y-4.03
X2.01Y-4.064
X2.01Y-4.102
X2.01Y-4.14
X2.01Y-4.192
X2.01Y-4.23
X2.01Y-4.284
X2.01Y-4.322
X2.015Y-4.375
X2.02Y-4.425
X2.02Y-4.475
X2.02Y-5.815
X2.07Y-4.425
X2.07Y-4.475
X2.07Y-5.37
X2.07Y-5.55
X2.12Y-4.425
X2.12Y-4.475
X2.17Y-4.425
X2.17Y-4.475
X2.22Y-4.425
X2.22Y-4.475
X2.262Y-3.724
X2.262Y-3.762
X2.27Y-4.425
X2.27Y-4.475
X2.3Y-3.724
X2.3Y-3.762
X2.32Y-4.425
X2.32Y-4.475
X2.348Y-3.854
X2.348Y-3.89
X2.348Y-3.952
X2.37Y-4.425
X2.37Y-4.475
X2.42Y-4.475
X2.42Y-4.525
X2.47Y-4.475
X2.47Y-4.525
X2.49Y-3.72
X2.52Y-4.525
X2.57Y-4.525
X2.725Y-4.525
X2.775Y-4.525
X2.795Y-5.19
X2.84Y-5.015
X2.95Y-4.85
X2.96Y-5.995
X2.964Y-3.849
X3.01Y-5.68
X3.015Y-4.97
X3.04Y-3.849
X3.08Y-5.72
X3.17Y-4.97
X3.2Y-4.97
X3.23Y-4.97
X3.26Y-5.4592
X3.28Y-5.52
X3.2805Y-5.585
X3.283Y-3.3223
X3.349Y-3.32
X3.37Y-4.225
X3.37Y-4.292
X3.37Y-4.36
X3.37Y-4.94
X3.41Y-4.54
X3.44Y-4.225
X3.44Y-4.36
X3.457Y-3.272
X3.51Y-4.225
X3.51Y-4.292
X3.51Y-4.36
X3.52Y-6.04
X3.57Y-5.305
X3.6Y-5.45
X3.61Y-4.455
X3.67Y-5.14
X3.67Y-5.225
X3.71Y-5.55
X3.8Y-4.95
X3.8186Y-5.42
X3.84Y-4.95
X3.845Y-3.201
X3.88Y-4.95
X3.89Y-4.59
X3.89Y-4.625
X3.89Y-4.66
X3.89Y-4.695
X3.8944Y-2.9994
X3.925Y-4.59
X3.925Y-4.625
X3.925Y-4.66
X3.925Y-4.695
X3.929Y-3.2
X3.94Y-3.87
X3.94Y-3.91
X3.94Y-3.95
X3.96Y-5.63
X4.085Y-5.05
X4.125Y-4.71
X4.125Y-4.93
X4.125Y-5.05
X4.125Y-5.29
X4.125Y-5.505
X4.14Y-5.83
X4.165Y-4.71
X4.165Y-4.93
X4.165Y-5.05
X4.165Y-5.29
X4.165Y-5.505
X4.205Y-4.71
X4.205Y-4.93
X4.205Y-5.29
X4.205Y-5.505
X4.225Y-5.795
X4.245Y-4.71
X4.245Y-5.29
X4.25Y-4.89
X4.25Y-5.465
X4.285Y-4.71
X4.285Y-5.29
X4.285Y-5.995
X4.285Y-6.08
X4.29Y-4.89
X4.29Y-5.465
X4.31Y-5.795
X4.33Y-4.925
X4.33Y-5.505
X4.37Y-4.925
X4.37Y-5.505
X4.415Y-4.96
X4.4156Y-5.5488
X4.4182Y-4.8132
X4.42Y-5.395
X4.455Y-6.055
X4.46Y-4.905
X4.465Y-5.486
X4.49Y-4.905
X4.5008Y-5.486
X4.515Y-4.7577
X4.515Y-4.7912
X4.515Y-4.8247
X4.516Y-5.3379
X4.516Y-5.3714
X4.516Y-5.4048
X4.5206Y-4.905
X4.5386Y-4.6751
X4.5397Y-5.2552
X4.5401Y-5.4858
X4.5445Y-4.7577
X4.5445Y-4.7912
X4.5445Y-4.8247
X4.5456Y-5.3379
X4.5456Y-5.3714
X4.5456Y-5.4048
X4.56Y-4.905
X4.5795Y-5.486
X4.618Y-4.857
X4.618Y-5.439
X4.65Y-4.9
X4.65Y-5.48
X4.69Y-4.9
X4.69Y-5.48
X4.739Y-4.84
X4.74Y-5.42
X4.7512Y-4.9447
X4.7523Y-5.5249
X4.7945Y-4.9447
X4.7956Y-5.5249
X4.8772Y-4.9447
X4.8782Y-5.5249
X4.92Y-4.9452
X4.9216Y-5.5249
X5.015Y-4.0
X5.175Y-3.165
X5.18Y-3.795
X5.193Y-3.279
X5.217Y-4.325
X5.2402Y-2.775
X5.253Y-4.752
X5.253Y-4.782
X5.253Y-4.812
X5.2805Y-5.2288
X5.285Y-4.955
X5.285Y-5.01
X5.285Y-5.07
X5.3015Y-3.9065
X5.4395Y-5.232
X5.4515Y-5.4378
X5.6355Y-5.2234
X6.166Y-3.8
T3
X5.245Y-6.2898
X5.345Y-6.2898
X5.4492Y-6.3914
X5.45Y-6.1898
X5.45Y-6.29
X5.5492Y-6.3914
X5.55Y-6.1898
X5.55Y-6.29
X5.655Y-6.2898
X5.755Y-6.2898
T4
X3.44Y-4.0752
X3.44Y-4.2923
X3.94Y-4.0752
X3.94Y-4.2923
X4.44Y-4.0752
X4.44Y-4.2923
X4.94Y-4.0752
X4.94Y-4.2923
T5
X1.59Y-2.8252
X1.59Y-2.9252
X1.9298Y-3.32
X1.9298Y-4.64
X2.0298Y-3.32
X2.0298Y-4.64
X2.6474Y-3.759
X2.7474Y-3.759
X2.79Y-3.5
X2.817Y-3.242
X2.8474Y-3.759
X2.89Y-3.5
X2.943Y-3.241
X2.99Y-3.5
X3.067Y-3.241
X3.09Y-3.5
X3.19Y-3.5
X3.2448Y-2.951
X3.2448Y-3.051
X3.27Y-3.7652
X3.27Y-3.8652
X3.29Y-3.5
X3.3448Y-2.951
X3.3448Y-3.051
X3.44Y-3.7652
X3.44Y-3.8652
X3.4448Y-2.951
X3.4448Y-3.051
X3.5448Y-2.951
X3.5448Y-3.051
X3.6448Y-2.951
X3.6448Y-3.051
X3.6603Y-3.54
X3.6603Y-3.64
X3.68Y-5.925
X3.6802Y-5.78
X3.712Y-3.183
X3.7448Y-2.951
X3.7448Y-3.051
X3.7603Y-3.54
X3.7603Y-3.64
X3.78Y-5.925
X3.7802Y-5.78
X3.8602Y-5.51
X3.8602Y-3.54
X3.8602Y-3.64
X3.8852Y-4.855
X3.9602Y-5.51
X3.9852Y-4.855
X4.06Y-4.565
X4.1452Y-3.86
X4.16Y-4.565
X4.195Y-3.065
X4.2452Y-3.86
X4.3Y-2.805
X4.3Y-2.96
X4.4279Y-3.4089
X4.4279Y-3.5089
X4.4281Y-3.6087
X4.4281Y-3.7087
X4.43Y-2.71
X4.43Y-2.81
X4.43Y-2.91
X4.43Y-3.84
X4.435Y-3.275
X4.5279Y-3.4089
X4.5279Y-3.5089
X4.5281Y-3.6087
X4.5281Y-3.7087
X4.56Y-3.84
X4.58Y-2.7106
X4.58Y-2.8106
X4.58Y-2.9106
X4.585Y-3.275
X4.6098Y-5.77
X4.6279Y-3.4089
X4.6279Y-3.5089
X4.6281Y-3.6087
X4.6281Y-3.7087
X4.69Y-3.84
X4.7098Y-5.77
X4.7279Y-3.4089
X4.7279Y-3.5089
X4.7281Y-3.6087
X4.7281Y-3.7087
X4.73Y-2.7106
X4.73Y-2.8106
X4.73Y-2.9106
X4.735Y-3.275
X4.82Y-3.84
X4.82Y-4.555
X4.82Y-5.155
X4.8279Y-3.4089
X4.8279Y-3.5089
X4.8281Y-3.6087
X4.8281Y-3.7087
X4.88Y-3.275
X4.9279Y-3.4089
X4.9279Y-3.5089
X4.9281Y-3.6087
X4.9281Y-3.7087
X4.95Y-3.84
X4.9594Y-5.11
X4.9594Y-5.21
X5.0279Y-3.4089
X5.0279Y-3.5089
X5.0281Y-3.6087
X5.0281Y-3.7087
X5.04Y-4.5594
X5.04Y-4.6594
X5.04Y-4.7594
X5.08Y-3.84
X5.11Y-4.9948
X5.11Y-5.0948
X5.11Y-5.2402
X5.11Y-5.3402
X5.1279Y-3.4089
X5.1279Y-3.5089
X5.1281Y-3.6087
X5.1281Y-3.7087
X5.19Y-4.5602
X5.19Y-4.6602
X5.2281Y-3.6087
X5.2281Y-3.7087
X5.235Y-3.9702
X5.235Y-4.0702
X5.3Y-3.46
X5.3281Y-3.6087
X5.3281Y-3.7087
X5.3397Y-5.79
X5.4281Y-3.6087
X5.4281Y-3.7087
X5.4397Y-5.79
X5.5281Y-3.6087
X5.5281Y-3.7087
X5.53Y-3.46
X5.5397Y-5.79
X5.6397Y-5.79
X5.8803Y-3.899
X5.8803Y-3.999
X5.9802Y-3.899
X5.9802Y-3.999
X6.0802Y-3.899
X6.0802Y-3.999
X6.1803Y-3.899
X6.1803Y-3.999
X6.48Y-3.8998
X6.48Y-3.9998
X6.485Y-4.165
T6
X1.57Y-4.9631
X1.57Y-5.3569
T7
X2.475Y-5.3743
X2.475Y-6.0302
T8
X2.3987Y-3.1252
X2.4967Y-3.0272
X2.5956Y-3.1252
X2.6936Y-3.0272
X2.6936Y-3.224
X2.7916Y-3.1252
X2.8904Y-3.0272
X2.9885Y-3.1252
T9
X2.5956Y-2.6331
X2.7916Y-2.6331
T10
X2.334Y-3.492
X2.49Y-3.492
X2.9264Y-4.1628
X3.0824Y-4.1628
T11
X1.15Y-3.0769
X1.28Y-2.8569
X1.41Y-3.0769
T12
X5.4055Y-3.9555
X5.5615Y-3.9555
T13
X1.24Y-3.934
X1.24Y-4.09
X2.552Y-4.0
X2.708Y-4.0
T14
X1.2131Y-3.2947
X1.2131Y-3.6853
X1.3469Y-3.2947
X1.3469Y-3.6853
T2
G00X1.8658Y-3.0652
M15
G01X1.8658Y-3.1478
M16
G05
G00X1.8816Y-2.9215
M15
G01X1.8816Y-3.0041
M16
G05
G00X2.0784Y-2.9215
M15
G01X2.0784Y-3.0041
M16
G05
G00X2.0942Y-3.0652
M15
G01X2.0942Y-3.1478
M16
G05
T5
G00X1.9564Y-2.7463
M15
G01X2.0036Y-2.7463
M16
G05
M30
